<svg xmlns="http://www.w3.org/2000/svg" width="18.534" height="27.2" viewBox="0 0 18.534 27.2"><g transform="translate(-24.672 -12.3)"><g transform="translate(25.275 12.9)"><path d="M30.345,26.772a.214.214,0,0,0,.182.255h.51a1.024,1.024,0,0,0,.874-.473,38.986,38.986,0,0,0,2.84-5.207h3.459a1.384,1.384,0,1,0,0-2.767H34.75a43.62,43.62,0,0,0-2.84-5.207,1.024,1.024,0,0,0-.874-.473h-.51a.184.184,0,0,0-.182.255,51.709,51.709,0,0,1,1.274,5.5l-3.787.255a21.732,21.732,0,0,0-1.274-2.257.555.555,0,0,0-.437-.255h-.655a.184.184,0,0,0-.182.255,17.222,17.222,0,0,1,.655,3.313,17.222,17.222,0,0,1-.655,3.313.214.214,0,0,0,.182.255h.655a.475.475,0,0,0,.437-.255,21.732,21.732,0,0,0,1.274-2.257l3.787.255A51.709,51.709,0,0,1,30.345,26.772Z" transform="translate(-25.275 -12.9)" fill="none" stroke="#26698e" stroke-width="1.2"/><path d="M49.527,51.8h-.655a.475.475,0,0,0-.437.255,21.733,21.733,0,0,0-1.274,2.257l-3.787-.255a45.612,45.612,0,0,1,1.274-5.5.214.214,0,0,0-.182-.255h-.51a1.024,1.024,0,0,0-.874.473,38.986,38.986,0,0,0-2.84,5.207H36.784a1.384,1.384,0,0,0,0,2.767h3.459a43.62,43.62,0,0,0,2.84,5.207,1.024,1.024,0,0,0,.874.473h.51a.184.184,0,0,0,.182-.255,51.709,51.709,0,0,1-1.274-5.5l3.787-.255a21.732,21.732,0,0,0,1.274,2.257.555.555,0,0,0,.437.255h.655a.184.184,0,0,0,.182-.255,17.221,17.221,0,0,1-.655-3.313,17.222,17.222,0,0,1,.655-3.313A.194.194,0,0,0,49.527,51.8Z" transform="translate(-32.39 -36.427)" fill="none" stroke="#26698e" stroke-width="1.2"/></g></g></svg>