<svg xmlns="http://www.w3.org/2000/svg" width="23.998" height="20.135" viewBox="0 0 23.998 20.135"><g transform="translate(-66 -1001)"><g transform="translate(64.049 996.493)"><g transform="translate(1.951 4.507)"><path d="M22.228,10.183h0L15.56,5.041a2.571,2.571,0,0,0-3.137,0L5.756,10.183h0l-3.428,2.64a.857.857,0,1,0,1.046,1.354l2.048-1.534v9.428a2.571,2.571,0,0,0,2.571,2.571h12a2.571,2.571,0,0,0,2.571-2.571V12.643l2.048,1.577a.857.857,0,0,0,1.046-1.354Zm-1.38,11.888a.857.857,0,0,1-.857.857h-12a.857.857,0,0,1-.857-.857V11.28l6.334-4.868a.857.857,0,0,1,1.046,0l6.334,4.868Z" transform="translate(-1.951 -4.507)" fill="#26698e"/></g></g><g transform="translate(76 1011)" fill="#fff" stroke="#26698e" stroke-width="1"><rect width="4" height="4" rx="1" stroke="none"/><rect x="0.5" y="0.5" width="3" height="3" rx="0.5" fill="none"/></g></g></svg>