<svg xmlns="http://www.w3.org/2000/svg" width="24.074" height="24.069" viewBox="0 0 24.074 24.069"><g transform="translate(-62.352 -62.552)"><g transform="translate(62.352 62.552)"><path d="M77.121,86.621a1.833,1.833,0,0,1-.91-.244L74.5,85.39a.215.215,0,0,0-.219,0l-1.716.988a1.8,1.8,0,0,1-.907.244,1.83,1.83,0,0,1-1.584-.913l-.99-1.718a.224.224,0,0,0-.19-.11H66.922A1.827,1.827,0,0,1,65.1,82.055V80.088a.22.22,0,0,0-.11-.19l-1.721-.99a1.826,1.826,0,0,1-.669-2.494l.988-1.715a.215.215,0,0,0,0-.219L62.6,72.763a1.829,1.829,0,0,1,.672-2.494l1.718-.99a.224.224,0,0,0,.11-.19V67.122A1.827,1.827,0,0,1,66.922,65.3h1.967a.22.22,0,0,0,.19-.11l.99-1.721a1.826,1.826,0,0,1,2.494-.669l1.715.988a.215.215,0,0,0,.219,0l1.716-.988a1.829,1.829,0,0,1,2.494.672l.99,1.718a.224.224,0,0,0,.19.11h1.967a1.827,1.827,0,0,1,1.825,1.825v1.967a.22.22,0,0,0,.11.19l1.721.99a1.831,1.831,0,0,1,.672,2.494L85.2,74.479a.215.215,0,0,0,0,.219h0l.988,1.715a1.829,1.829,0,0,1-.672,2.494l-1.721.99a.224.224,0,0,0-.11.19v1.967a1.827,1.827,0,0,1-1.825,1.825H79.888a.22.22,0,0,0-.19.11l-.99,1.721a1.809,1.809,0,0,1-1.108.851A1.972,1.972,0,0,1,77.121,86.621Zm-2.735-2.866A1.815,1.815,0,0,1,75.3,84l1.715.988a.22.22,0,0,0,.169.021.218.218,0,0,0,.134-.1l.99-1.721a1.829,1.829,0,0,1,1.582-.915h1.967a.22.22,0,0,0,.219-.219V80.083A1.829,1.829,0,0,1,82.99,78.5l1.721-.99a.222.222,0,0,0,.08-.3L83.8,75.49a1.831,1.831,0,0,1,0-1.823l.988-1.715a.223.223,0,0,0-.08-.3l-1.721-.99a1.829,1.829,0,0,1-.915-1.582V67.111a.22.22,0,0,0-.219-.219H79.888a1.829,1.829,0,0,1-1.582-.915l-.99-1.718a.222.222,0,0,0-.3-.08l-1.715.988a1.831,1.831,0,0,1-1.823,0l-1.715-.988a.22.22,0,0,0-.169-.021.218.218,0,0,0-.134.1l-.99,1.721a1.829,1.829,0,0,1-1.582.915H66.919a.22.22,0,0,0-.219.219v1.967a1.829,1.829,0,0,1-.915,1.582l-1.718.99a.222.222,0,0,0-.08.3l.988,1.715a1.831,1.831,0,0,1,0,1.823l-.988,1.715a.22.22,0,0,0-.021.169.218.218,0,0,0,.1.134l1.721.99a1.829,1.829,0,0,1,.915,1.582V82.05a.22.22,0,0,0,.219.219h1.967a1.829,1.829,0,0,1,1.582.915l.99,1.718a.222.222,0,0,0,.3.08L73.478,84A1.806,1.806,0,0,1,74.386,83.755Z" transform="translate(-62.352 -62.552)" fill="#26698e"/><rect width="1.606" height="11.291" transform="translate(15.457 7.469) rotate(45)" fill="#26698e"/><path d="M311.82,314.191a2.4,2.4,0,1,1,1.694-.7A2.387,2.387,0,0,1,311.82,314.191Zm0-3.185a.788.788,0,1,0,.557.23A.783.783,0,0,0,311.82,311.006Z" transform="translate(-302.813 -302.794)" fill="#26698e"/><path d="M538.12,540.315a2.4,2.4,0,1,1,1.694-.7A2.387,2.387,0,0,1,538.12,540.315Zm0-3.185a.788.788,0,1,0,.557.23A.784.784,0,0,0,538.12,537.13Z" transform="translate(-523.056 -522.867)" fill="#26698e"/></g></g></svg>