<svg xmlns="http://www.w3.org/2000/svg" width="20.234" height="20.224" viewBox="0 0 20.234 20.224"><g transform="translate(-0.264 -0.266)"><g transform="translate(0.264 0.266)"><path d="M17.128.266a3.379,3.379,0,0,0-3.369,3.369,3.31,3.31,0,0,0,.128.864L6.274,8.306A3.352,3.352,0,0,0,3.638,7a3.372,3.372,0,1,0,0,6.744,3.354,3.354,0,0,0,2.635-1.3l7.614,3.805a3.309,3.309,0,0,0-.128.862,3.417,3.417,0,1,0,.733-2.067L6.88,11.239a3.013,3.013,0,0,0,0-1.731L14.491,5.7A3.362,3.362,0,1,0,17.128.266Zm0,1.343a2.023,2.023,0,1,1-2.02,2.026A2.014,2.014,0,0,1,17.128,1.609ZM3.638,8.352a2.022,2.022,0,1,1-2.026,2.025A2.012,2.012,0,0,1,3.638,8.352ZM17.128,15.1a2.023,2.023,0,1,1-2.02,2.02A2.009,2.009,0,0,1,17.128,15.1Z" transform="translate(-0.264 -0.266)" fill="#fff"/></g></g></svg>