<svg xmlns="http://www.w3.org/2000/svg" width="18" height="18" viewBox="0 0 25.456 25.456">
  <path id="ic20-plane" d="M17.1,0a2.173,2.173,0,0,0-1.536.636l-2.6,2.6a.9.9,0,0,1-.855.237L1.8.9l-.917.917a.9.9,0,0,0,.234,1.441L9,7.2,5.4,10.8H1.456a.9.9,0,0,0-.8.5L0,12.6H0l3.6,1.8h0L5.4,18l1.3-.651a.9.9,0,0,0,.5-.8V12.6L10.8,9l3.942,7.883a.9.9,0,0,0,1.441.234L17.1,16.2,14.524,5.894a.9.9,0,0,1,.237-.855l2.6-2.6A2.173,2.173,0,0,0,18,.9.9.9,0,0,0,17.1,0Z" transform="translate(12.728) rotate(45)" fill="#fff" fill-rule="evenodd"/>
</svg>
