<svg xmlns="http://www.w3.org/2000/svg" width="14.017" height="14.017" viewBox="0 0 14.017 14.017"><g transform="translate(-29 -471)"><g transform="translate(29 471)"><path d="M7.008,14.017A7.008,7.008,0,0,1,7.008,0a.584.584,0,0,1,0,1.168,5.84,5.84,0,1,0,5.84,5.84.584.584,0,1,1,1.168,0A7.016,7.016,0,0,1,7.008,14.017Zm0-12.849A.614.614,0,0,1,6.594,1,.614.614,0,0,1,6.424.584.614.614,0,0,1,6.594.169a.612.612,0,0,1,.829,0,.614.614,0,0,1,.169.415A.614.614,0,0,1,7.423,1,.614.614,0,0,1,7.008,1.168Zm5.4,3.6a.585.585,0,1,1,.765.315.631.631,0,0,1-.222.047A.581.581,0,0,1,12.405,4.772ZM11.137,2.879a.589.589,0,0,1,0-.829.582.582,0,0,1,.823,0,.584.584,0,0,1-.408,1A.6.6,0,0,1,11.137,2.879ZM9.245,1.612A.585.585,0,1,1,9.7.531a.584.584,0,0,1-.228,1.121.576.576,0,0,1-.222-.041Zm4.188,5.981a.578.578,0,1,1,.415-.169.613.613,0,0,1-.415.169ZM9.344,8.761a.586.586,0,0,1-.26-.061L6.747,7.531a.585.585,0,0,1-.323-.523V2.92a.584.584,0,1,1,1.168,0V6.648L9.606,7.654a.584.584,0,0,1-.262,1.106Z" fill="#1d8ccc"/></g></g></svg>