<svg xmlns="http://www.w3.org/2000/svg" width="16.102" height="11.915" viewBox="0 0 16.102 11.915">
  <g id="noun_Arrow_2320225" transform="translate(-19.9 -28)">
    <path id="Path_11668" data-name="Path 11668" d="M35.841,34.548a.1.1,0,0,0,.027-.081.2.2,0,0,0,.054-.107c0-.027.027-.054.027-.107,0-.027.027-.081.027-.107,0-.054.027-.107.027-.161v-.107a.34.34,0,0,0-.027-.161c0-.054-.027-.081-.027-.107s-.027-.054-.027-.081c-.027-.054-.054-.081-.081-.134,0-.027-.027-.027-.027-.054-.054-.054-.081-.107-.134-.161l-4.857-4.857a1.082,1.082,0,0,0-1.53,1.53l3.033,3.033H20.973a1.073,1.073,0,0,0,0,2.147H32.325l-3.033,3.033a1.072,1.072,0,1,0,1.5,1.53l4.884-4.884Z" fill="#aaa"/>
  </g>
</svg>
