<svg xmlns="http://www.w3.org/2000/svg" width="26" height="24" viewBox="0 0 26 24">
  <g id="Group_4675" data-name="Group 4675" transform="translate(-275 -198)">
    <g id="noun_support_time_4211210" data-name="noun_support time_4211210" transform="translate(272.6 189.9)">
      <g id="Group_4654" data-name="Group 4654" transform="translate(2.4 8.1)">
        <path id="Path_11661" data-name="Path 11661" d="M26.295,16.989h-.848A10.376,10.376,0,0,0,15.386,8.1,10.4,10.4,0,0,0,5.325,16.989h-.82A2.178,2.178,0,0,0,2.4,19.2v3.7a2.244,2.244,0,0,0,.629,1.577,2.111,2.111,0,0,0,1.476.631H6.392a1,1,0,0,0,.984-1.032V18.8a8.2,8.2,0,0,1,7.983-8.373A8.2,8.2,0,0,1,23.342,18.8v7.2a3.374,3.374,0,0,1-3.281,3.441h-1.8A1.28,1.28,0,0,0,17,28.4H13.746a1.346,1.346,0,0,0-1.312,1.376v.946A1.346,1.346,0,0,0,13.746,32.1h3.308a1.359,1.359,0,0,0,1.258-1.032h1.8a4.97,4.97,0,0,0,4.839-5.075v-.918h1.34a2.063,2.063,0,0,0,1.476-.631,2.244,2.244,0,0,0,.629-1.577V19.2A2.178,2.178,0,0,0,26.295,16.989Z" transform="translate(-2.4 -8.1)" fill="#fff"/>
      </g>
    </g>
    <text id="_24" data-name="24" transform="translate(283 213)" fill="#fff" font-size="9" font-family="SegoeUIBlack, Segoe UI"><tspan x="0" y="0">24</tspan></text>
  </g>
</svg>
