<svg xmlns="http://www.w3.org/2000/svg" width="12" height="10.315" viewBox="0 0 12 10.315">
  <g id="noun_Baggage_1089304" transform="translate(-24 -27.6)">
    <path id="Path_8116" data-name="Path 8116" d="M45.543,30.432H41.2V28.274c0-.378.378-.674.917-.674h2.913c.54,0,.917.27.917.674L45.975,30a.566.566,0,0,1-.108.3A.427.427,0,0,1,45.543,30.432Zm-3.534-.809h3.129V28.6a.174.174,0,0,0-.162-.162H42.144a.174.174,0,0,0-.162.162l.027,1.025Z" transform="translate(-13.577)" fill="#6c6c6c"/>
    <path id="Path_8117" data-name="Path 8117" d="M35.077,35.1H24.923a.889.889,0,0,0-.923.847v6.6a.861.861,0,0,0,.923.847H35.077A.889.889,0,0,0,36,42.545v-6.6A.889.889,0,0,0,35.077,35.1ZM32.4,38.176l-2.746,2.63a.406.406,0,0,1-.508,0l-1.569-1.516a.316.316,0,0,1,0-.468.343.343,0,0,1,.485,0l1.315,1.271,2.492-2.407a.343.343,0,0,1,.485,0A.367.367,0,0,1,32.4,38.176Z" transform="translate(0 -5.477)" fill="#6c6c6c"/>
  </g>
</svg>
