<svg xmlns="http://www.w3.org/2000/svg" width="12" height="12" viewBox="0 0 12 12"><g transform="translate(-647 -728)"><g transform="translate(647 728)" fill="red" stroke="#ff0031" stroke-width="1"><circle cx="6" cy="6" r="6" stroke="none"/><circle cx="6" cy="6" r="5.5" fill="none"/></g><g transform="translate(647.227 729.299)"><g transform="translate(0.938 0.5)"><circle cx="0.753" cy="0.753" r="0.753" transform="translate(4.549 0)" fill="#fff"/><path d="M9.476,2.927a.46.46,0,0,0-.59.213c-.753,1.38-1.48,1.693-2.371,1.668A2.52,2.52,0,0,1,6.139,4.7a3.891,3.891,0,0,0-.991-.3L3.555,4.044a.6.6,0,0,0-.7.4L2.4,5.837a.63.63,0,0,0-.025.151l-.05-.013c-.025-.013-.038,0-.05.025l-.1.314c-.013,0-.013,0-.025.013l-.577-.188a.119.119,0,0,0-.163.088L.946,7.694a.119.119,0,0,0,.088.163l2.158.69a.119.119,0,0,0,.163-.088l.477-1.468a.119.119,0,0,0-.088-.163L3.166,6.64c0-.013,0-.013-.013-.025l.1-.314c.013-.025,0-.038-.025-.05l-.063-.013A1.368,1.368,0,0,0,3.242,6.1l.351-1.079a.061.061,0,0,1,.075-.038l.966.213c.025,0,.038.025.038.05-.088.326-.59,2.22-.59,2.22a.178.178,0,0,0-.025.075s-.013.038-.025.088A2.341,2.341,0,0,1,3.028,9a1.551,1.551,0,0,1-1.2.113.456.456,0,0,0-.577.263.445.445,0,0,0,.263.577,2.3,2.3,0,0,0,.79.125A2.4,2.4,0,0,0,3.43,9.8,3.12,3.12,0,0,0,4.81,8.07a.135.135,0,0,1,.2-.063L6.44,9a.338.338,0,0,1,.088.1l1.054,2.145a.439.439,0,0,0,.4.251.439.439,0,0,0,.389-.652L7.231,8.5a.338.338,0,0,0-.088-.1L6.026,7.619a.119.119,0,0,1-.05-.138l.439-1.643A.205.205,0,0,1,6.591,5.7a1.771,1.771,0,0,0,.276-.013A3.194,3.194,0,0,0,9.614,3.655c.025-.038.038-.063.063-.1A.472.472,0,0,0,9.476,2.927ZM3.028,6.4l-.05.151c0,.013-.013.013-.025.013l-.577-.188c-.013,0-.013-.013-.013-.025l.05-.151c0-.013.013-.013.013-.025a.37.37,0,0,0,.251.2.533.533,0,0,0,.138.025.368.368,0,0,0,.2-.05A.1.1,0,0,1,3.028,6.4Z" transform="translate(-0.938 -2.588)" fill="#fff"/></g></g></g></svg>