<svg xmlns="http://www.w3.org/2000/svg" width="14.497" height="14.497" viewBox="0 0 14.497 14.497"><g transform="translate(-7.993 -6)"><g transform="translate(7.993 6)"><path d="M18.666,6a3.909,3.909,0,0,0-3.93,3.877.337.337,0,1,0,.674,0,3.279,3.279,0,0,1,5.873-1.928l-.927-.1a.337.337,0,1,0-.068.669l1.638.174a.337.337,0,0,0,.369-.369L22.127,6.6a.339.339,0,1,0-.674.068l.047.5A3.944,3.944,0,0,0,18.666,6ZM10.717,8.36a1.763,1.763,0,0,0-1.106.521c-2.35,2.35-2.263,3.926,1.069,7.259l1.67,1.67c3.332,3.332,4.909,3.419,7.259,1.069.408-.411.732-1.174.358-1.549a12.5,12.5,0,0,0-2.276-1.654c-.5-.252-1.042.372-1.375.69-.853.813-1,1.313-2.66-.342l-1.19-1.19c-1.656-1.656-1.155-1.807-.342-2.66.318-.333.942-.871.69-1.375A12.5,12.5,0,0,0,11.16,8.523.6.6,0,0,0,10.717,8.36Zm11.4,1.175a.337.337,0,0,0-.3.342,3.2,3.2,0,0,1-3.2,3.2,3.159,3.159,0,0,1-2.592-1.285l1,.105a.337.337,0,1,0,.068-.669l-1.638-.174a.338.338,0,0,0-.374.369l.174,1.728a.337.337,0,1,0,.669-.068l-.042-.437A3.9,3.9,0,0,0,22.49,9.877a.337.337,0,0,0-.374-.342Z" transform="translate(-7.993 -6)" fill="#6c6c6c"/></g></g></svg>