<svg xmlns="http://www.w3.org/2000/svg" width="14.021" height="14.02" viewBox="0 0 14.021 14.02"><g transform="translate(-6.09 -6.001)"><path d="M37.19,14.024a.051.051,0,0,0,.021,0,.3.3,0,0,0,.292-.275,5.422,5.422,0,0,0-5.039-5.766.3.3,0,0,0-.31.272.289.289,0,0,0,.272.31,4.836,4.836,0,0,1,4.493,5.147A.289.289,0,0,0,37.19,14.024Z" transform="translate(-18.398 -1.405)" fill="#6c6c6c"/><path d="M35.545,17.343h.021a.293.293,0,0,0,.292-.272,4.008,4.008,0,0,0-3.722-4.265.3.3,0,0,0-.313.275.291.291,0,0,0,.272.31,3.421,3.421,0,0,1,3.178,3.64A.3.3,0,0,0,35.545,17.343Z" transform="translate(-18.177 -4.817)" fill="#6c6c6c"/><path d="M31.174,22.737a.289.289,0,0,0,.272.31.593.593,0,0,1,.549.631.289.289,0,0,0,.271.31.052.052,0,0,0,.021,0,.3.3,0,0,0,.292-.275,1.178,1.178,0,0,0-1.1-1.25A.291.291,0,0,0,31.174,22.737Z" transform="translate(-17.726 -11.654)" fill="#6c6c6c"/><path d="M20.083,17.036a1.587,1.587,0,0,0-.759-1.025c-.73-.429-1.486-.841-2.217-1.238l-.513-.28a1.445,1.445,0,0,0-1.328-.166,1.333,1.333,0,0,0-.7,1.017c0,.009,0,.02,0,.032a.362.362,0,0,1-.237.257.536.536,0,0,1-.51-.1,19.2,19.2,0,0,1-3.237-3.21.515.515,0,0,1-.1-.5.39.39,0,0,1,.3-.251.121.121,0,0,0,.032,0,1.278,1.278,0,0,0,1.012-.733A1.56,1.56,0,0,0,11.5,9.351a16.4,16.4,0,0,1-.938-1.668c-.132-.254-.261-.508-.4-.759a1.626,1.626,0,0,0-1.038-.9,1.4,1.4,0,0,0-1.138.307,13.5,13.5,0,0,0-1.129.943A2.38,2.38,0,0,0,6.332,10.1a17.434,17.434,0,0,0,9.807,9.7,2.732,2.732,0,0,0,1.047.222,2.293,2.293,0,0,0,1.639-.713A11.392,11.392,0,0,0,19.851,18.1,1.325,1.325,0,0,0,20.083,17.036Z" transform="translate(0)" fill="#6c6c6c"/><path d="M33.9,20.665h.02a.289.289,0,0,0,.289-.272,2.591,2.591,0,0,0-2.407-2.757.293.293,0,1,0-.038.584,2.006,2.006,0,0,1,1.864,2.135A.291.291,0,0,0,33.9,20.665Z" transform="translate(-17.949 -8.236)" fill="#6c6c6c"/></g></svg>