<svg xmlns="http://www.w3.org/2000/svg" width="16.377" height="11.131" viewBox="0 0 16.377 11.131"><g transform="translate(0.2 0.2)"><path d="M1.192,0H14.784a1.181,1.181,0,0,1,1.192,1.192V9.538a1.181,1.181,0,0,1-1.192,1.192H1.192A1.181,1.181,0,0,1,0,9.538V1.192A1.181,1.181,0,0,1,1.192,0ZM.858,2.623h14.26V1.192a.326.326,0,0,0-.334-.334H1.192a.326.326,0,0,0-.334.334Zm14.26.858H.858V9.538a.326.326,0,0,0,.334.334H14.784a.326.326,0,0,0,.334-.334Z" fill="#242a37" stroke="#242a37" stroke-width="0.4"/><path d="M56.429,111H59.72a.429.429,0,0,1,0,.858H56.429A.429.429,0,0,1,56.429,111Z" transform="translate(-53.329 -105.706)" fill="#242a37" stroke="#242a37" stroke-width="0.4" fill-rule="evenodd"/><path d="M56.429,148H59.72a.429.429,0,0,1,0,.858H56.429A.429.429,0,0,1,56.429,148Z" transform="translate(-53.329 -140.942)" fill="#242a37" stroke="#242a37" stroke-width="0.4" fill-rule="evenodd"/></g></svg>