<svg xmlns="http://www.w3.org/2000/svg" width="18.1" height="14.1" viewBox="0 0 18.1 14.1">
    <g transform="translate(-5.135 -16.939)" fill="#000000">
        <path d="M21.346,17.933a1.028,1.028,0,0,1,.985,1.088v2.257a2.842,2.842,0,0,0,0,5.421v2.257a1.028,1.028,0,0,1-.985,1.089H7.023a1.028,1.028,0,0,1-.985-1.089V26.7a2.842,2.842,0,0,0,0-5.422V19.021a1.028,1.028,0,0,1,.985-1.088ZM7.023,16.989a1.948,1.948,0,0,0-1.838,2.032v2.607a.455.455,0,0,0,.394.471,1.916,1.916,0,0,1,0,3.778.456.456,0,0,0-.394.471v2.609a1.949,1.949,0,0,0,1.838,2.033H21.346a1.95,1.95,0,0,0,1.839-2.033V26.347a.455.455,0,0,0-.394-.47A1.83,1.83,0,0,1,21.2,23.989h0A1.829,1.829,0,0,1,22.791,22.1a.455.455,0,0,0,.394-.47V19.021a1.949,1.949,0,0,0-1.839-2.032Z" transform="translate(0 0)" stroke="#242a37" stroke-width="0.1"/>
        <path d="M37.829,33.7a.385.385,0,0,0-.264.115l-3.824,3.8a.382.382,0,1,0,.539.542l3.824-3.8A.382.382,0,0,0,37.829,33.7Z" transform="translate(-21.738 -12.001)" stroke="#242a37" stroke-width="0.1"/><path d="M33.035,33.09a.533.533,0,0,1-.759,0,.524.524,0,0,1,0-.752.533.533,0,0,1,.759,0A.526.526,0,0,1,33.035,33.09Zm-1.3-1.294a1.294,1.294,0,0,0,0,1.829,1.311,1.311,0,0,0,1.84,0,1.3,1.3,0,0,0,0-1.831A1.312,1.312,0,0,0,31.734,31.8Z" transform="translate(-20.141 -10.626)" stroke="#242a37" stroke-width="0.1"/>
        <path d="M47.536,47.515a.534.534,0,0,1-.759,0,.526.526,0,0,1,0-.754.531.531,0,0,1,.758,0A.525.525,0,0,1,47.536,47.515Zm-1.3-1.295a1.3,1.3,0,0,0,0,1.83,1.312,1.312,0,0,0,1.841,0,1.3,1.3,0,0,0,0-1.83A1.312,1.312,0,0,0,46.234,46.22Z" transform="translate(-31.3 -21.246)" fill="#000000" stroke="#242a37" stroke-width="0.1"/>
    </g></svg>
