<svg id="Group_2085" data-name="Group 2085" xmlns="http://www.w3.org/2000/svg" width="16.002" height="16.002" viewBox="0 0 16.002 16.002">
  <path id="Path_8228" data-name="Path 8228" d="M7.889,8.778H15A.889.889,0,0,0,15,7H7.889a.889.889,0,0,0,0,1.778Z" transform="translate(-7 -7)" fill="#242a37"/>
  <path id="Path_8229" data-name="Path 8229" d="M23,15.889A.889.889,0,0,0,22.113,15H7.889a.889.889,0,1,0,0,1.778H22.113A.889.889,0,0,0,23,15.889Z" transform="translate(-7 -7.888)" fill="#242a37"/>
  <path id="Path_8230" data-name="Path 8230" d="M23,23H15.889a.889.889,0,1,0,0,1.778H23A.889.889,0,0,0,23,23Z" transform="translate(-7.888 -8.776)" fill="#242a37"/>
</svg>
