<svg xmlns="http://www.w3.org/2000/svg" width="14.691" height="8.105" viewBox="0 0 14.691 8.105"><g transform="translate(0 0)"><g transform="translate(0 0)"><g transform="translate(0 0)"><g transform="translate(0 0)"><path d="M18.385,4.457a1.7,1.7,0,0,0,1.776-.367L24.414.014l0,0A.511.511,0,0,0,24.3,0H13.662a.507.507,0,0,0-.109.013l-.005,0L17.8,4.09a1.706,1.706,0,0,0,.585.367" transform="translate(-10.116 0)" fill="#6c6c6c" fill-rule="evenodd"/><path d="M12.023,1.432A.5.5,0,0,0,12,1.576V8.668a.5.5,0,0,0,.023.144l3.85-3.69Z" transform="translate(-8.961 -1.069)" fill="#6c6c6c" fill-rule="evenodd"/><path d="M20.512,17.438a2.215,2.215,0,0,1-3.061,0l-.055-.053-3.848,3.687.005,0a.5.5,0,0,0,.109.013H24.3a.508.508,0,0,0,.109-.013l.005,0-3.848-3.687Z" transform="translate(-10.116 -12.982)" fill="#6c6c6c" fill-rule="evenodd"/><path d="M46.557,1.432l-3.85,3.69,3.85,3.69a.5.5,0,0,0,.023-.144V1.576a.5.5,0,0,0-.023-.144" transform="translate(-31.89 -1.069)" fill="#6c6c6c" fill-rule="evenodd"/><path d="M3.266,7H2.253a.253.253,0,1,0,0,.507H3.266a.253.253,0,0,0,0-.507" transform="translate(-1.493 -5.227)" fill="#6c6c6c" fill-rule="evenodd"/><path d="M1.773,0H.253a.253.253,0,0,0,0,.507h1.52a.253.253,0,1,0,0-.507" transform="translate(0 0)" fill="#6c6c6c" fill-rule="evenodd"/><path d="M4.76,14H4.253a.253.253,0,0,0,0,.507H4.76a.253.253,0,0,0,0-.507" transform="translate(-2.987 -10.454)" fill="#6c6c6c" fill-rule="evenodd"/></g></g></g></g></svg>