<svg xmlns="http://www.w3.org/2000/svg" width="52.106" height="12.958" viewBox="0 0 52.106 12.958">
  <g id="Group_4142" data-name="Group 4142" transform="translate(-270 -590)">
    <g id="noun_USB_2117226" transform="translate(253 582)">
      <g id="Group_3995" data-name="Group 3995" transform="translate(17 8)">
        <path id="Path_11518" data-name="Path 11518" d="M17.877,960.362a.479.479,0,0,0-.414.463v2.005h-.048a.479.479,0,0,0-.414.463V967a1.179,1.179,0,0,0,.453.906,1.48,1.48,0,0,0,.935.328h.771V970.7a3.527,3.527,0,0,0,.371,1.909,1.686,1.686,0,0,0,1.479.714h2.776a1.686,1.686,0,0,0,1.479-.714,3.527,3.527,0,0,0,.371-1.909v-1.234a1.753,1.753,0,0,1,.082-.641c.034-.072.026-.063.116-.106a2.768,2.768,0,0,0,1.238-.81.463.463,0,0,0-.4-.762.468.468,0,0,0-.308.169c-.337.4-.546.387-.93.574a1.191,1.191,0,0,0-.549.55,2.392,2.392,0,0,0-.169,1.027V970.7a3.013,3.013,0,0,1-.231,1.417c-.129.206-.257.28-.694.28H21.009c-.437,0-.565-.074-.694-.28a3.013,3.013,0,0,1-.231-1.417V968.23h.771a1.48,1.48,0,0,0,.935-.328,1.179,1.179,0,0,0,.453-.906v-3.7a.481.481,0,0,0-.463-.463v-2.005a.481.481,0,0,0-.463-.463Zm.511.926h2.467v1.543H18.388Zm.612.145a.481.481,0,0,0-.458.472v.309a.463.463,0,1,0,.925,0V961.9A.481.481,0,0,0,19,961.432Zm1.234,0a.481.481,0,0,0-.458.472v.309a.463.463,0,1,0,.925,0V961.9A.481.481,0,0,0,20.234,961.432Zm-2.308,2.324h3.393V967a.237.237,0,0,1-.111.183.6.6,0,0,1-.352.125H18.388a.6.6,0,0,1-.352-.125.237.237,0,0,1-.111-.183Z" transform="translate(-17 -960.362)" fill="#13a869"/>
      </g>
    </g>
    <g id="noun_wifi_1852307" transform="translate(281.648 571.535)">
      <g id="Group_3996" data-name="Group 3996" transform="translate(5.352 20.464)">
        <path id="Path_11519" data-name="Path 11519" d="M8.905,27.482a3.465,3.465,0,1,1,6.93,0H14.9a2.529,2.529,0,1,0-5.058,0Zm-1.724,0a5.189,5.189,0,1,1,10.377,0h-.965a4.224,4.224,0,1,0-8.448,0Zm-1.829,0a7.018,7.018,0,1,1,14.036,0H18.319a5.949,5.949,0,1,0-11.9,0Z" transform="translate(-5.352 -20.464)" fill="#898989" fill-rule="evenodd"/>
        <circle id="Ellipse_785" data-name="Ellipse 785" cx="1.739" cy="1.739" r="1.739" transform="translate(5.251 5.141)" fill="#898989"/>
      </g>
    </g>
    <g id="noun_meal_3203723" transform="translate(305.33 568.801)">
      <g id="Group_3997" data-name="Group 3997" transform="translate(2.524 23.2)">
        <path id="Path_11520" data-name="Path 11520" d="M57.953,41.358a4.232,4.232,0,0,0-2.385-1.875.47.47,0,1,0-.27.9,3.3,3.3,0,0,1,1.86,1.47.458.458,0,0,0,.405.225.475.475,0,0,0,.24-.06A.5.5,0,0,0,57.953,41.358Z" transform="translate(-47.096 -37.023)" fill="#13a869"/>
        <path id="Path_11521" data-name="Path 11521" d="M16.441,29.41h-.78a6.033,6.033,0,0,0-5.145-5.505.908.908,0,0,0-1.77,0A6.033,6.033,0,0,0,3.63,29.41H2.85a.323.323,0,0,0-.3.45l.5,1.185a.313.313,0,0,0,.3.2h12.6a.328.328,0,0,0,.3-.2l.51-1.185A.337.337,0,0,0,16.441,29.41Zm-6.8-4.65a5.118,5.118,0,0,1,5.085,4.65H4.56A5.13,5.13,0,0,1,9.646,24.76Z" transform="translate(-2.524 -23.2)" fill="#13a869"/>
      </g>
    </g>
  </g>
</svg>
