<svg xmlns="http://www.w3.org/2000/svg" width="14.051" height="16.596" viewBox="0 0 14.051 16.596"><g transform="translate(-8.916 -2.381)"><path d="M21.1,5.631A.529.529,0,0,1,20.57,5.1V2.91a.529.529,0,1,1,1.058,0V5.1A.529.529,0,0,1,21.1,5.631Z" transform="translate(-9.385 0)" fill="#6c6c6c"/><path d="M54.316,5.631a.529.529,0,0,1-.529-.529V2.91a.529.529,0,1,1,1.058,0V5.1A.529.529,0,0,1,54.316,5.631Z" transform="translate(-36.135 0)" fill="#6c6c6c"/><path d="M12.83,22.331h-.616V19.477h.455c.026-.126.056-.249.09-.371h-.545V16.343h2.292a5.586,5.586,0,0,1,.625-.468V13.3h2.546V15c.122-.011.246-.018.371-.02V13.3H20.3v2.089a5.57,5.57,0,0,1,.68.332V11.585a1.249,1.249,0,0,0-1.247-1.247H19.2V11.51a1.02,1.02,0,1,1-2.041,0V10.338H12.735V11.51a1.02,1.02,0,1,1-2.041,0V10.338h-.531a1.249,1.249,0,0,0-1.247,1.247V21.764a1.249,1.249,0,0,0,1.247,1.248H13.1A5.615,5.615,0,0,1,12.83,22.331ZM12.214,13.3H14.76v2.673H12.214Zm-.371,9.032h-1.68a.568.568,0,0,1-.567-.567V19.477h2.247Zm0-3.226H9.6V16.343h2.247Zm0-3.134H9.6V13.3h2.247Z" transform="translate(0 -6.408)" fill="#6c6c6c"/><path d="M36.711,48.032A4.786,4.786,0,1,1,41.5,43.246,4.791,4.791,0,0,1,36.711,48.032Zm0-8.469a3.683,3.683,0,1,0,3.683,3.683A3.687,3.687,0,0,0,36.711,39.563Z" transform="translate(-18.53 -29.055)" fill="#6c6c6c"/><path d="M47.58,51.393c-.411-.271-1.272-.08-2.227.289l-1.677-1.638-.565.02,1.349,2c-.555.256-1.1.54-1.586.8l-.7-.526-.289.033.719.906.061,1.155.239-.166.173-.855c.534-.122,1.134-.275,1.719-.45l.314,2.391.436-.361.171-2.338C46.68,52.3,47.451,51.868,47.58,51.393Z" transform="translate(-26.552 -38.382)" fill="#6c6c6c"/></g></svg>