<svg xmlns="http://www.w3.org/2000/svg" width="24.06" height="16.909" viewBox="0 0 24.06 16.909">
  <path id="Path_8400" data-name="Path 8400" d="M-922.382,978.167l-.482-2.029a.647.647,0,0,0-.609-.482,2.138,2.138,0,0,1-2.08-1.674,2.18,2.18,0,0,1,1.116-2.435.631.631,0,0,0,.33-.71l-.482-2.029a1.535,1.535,0,0,0-1.851-1.141l-18.766,4.463a1.563,1.563,0,0,0-.964.685,1.454,1.454,0,0,0-.177,1.167l.482,2.029a.647.647,0,0,0,.609.482h.025a2.145,2.145,0,0,1,2.1,1.674,2.135,2.135,0,0,1-1.141,2.435.6.6,0,0,0-.33.71l.482,2.029a1.563,1.563,0,0,0,1.5,1.192,1.71,1.71,0,0,0,.355-.051l18.766-4.463a1.563,1.563,0,0,0,.964-.685A1.682,1.682,0,0,0-922.382,978.167Zm-12.477.938a.194.194,0,0,1-.051.127l-.33.33c-.051.051-.1.025-.127-.025l-.735-1.445-.152.152a.113.113,0,0,1-.127,0l-.1-.1a.113.113,0,0,1,0-.127l.228-.228-.456-.888c-.735.609-1.522,1.243-1.978,1.6v1.167a.193.193,0,0,1-.051.127l-.1.1a.063.063,0,0,1-.1-.025l-.609-1.116-1.116-.609c-.025-.025-.051-.076-.025-.1l.1-.1a.194.194,0,0,1,.127-.051h1.167c.355-.456.989-1.268,1.6-1.978l-.888-.456-.228.228a.113.113,0,0,1-.127,0l-.1-.1a.113.113,0,0,1,0-.127l.152-.152-1.445-.735c-.051-.025-.076-.076-.025-.127l.33-.33a.194.194,0,0,1,.127-.051l3.5.406c.812-.812,2.054-1.927,2.536-1.471.456.456-.659,1.724-1.471,2.536Zm11.209-.431a.351.351,0,0,1-.177.127l-5.224,1.243-2.358-9.865,5.224-1.243a.283.283,0,0,1,.33.2l.38,1.6a3.415,3.415,0,0,0-1.319,3.576,3.473,3.473,0,0,0,2.815,2.612l.38,1.572A.366.366,0,0,1-923.65,978.675Z" transform="translate(946.396 -967.624)" fill="#fff"/>
</svg>
