<svg id="noun_Hotel_275507" xmlns="http://www.w3.org/2000/svg" width="18.796" height="19.196" viewBox="0 0 18.796 19.196">
  <g id="Group_1347" data-name="Group 1347">
    <path id="Path_8001" data-name="Path 8001" d="M23.878,22.829h-.383V7.178a.911.911,0,0,0-.855-.96h-.914V5.466A.439.439,0,0,0,21.32,5H9.351a.439.439,0,0,0-.406.466v.752H8.03a.911.911,0,0,0-.854.96V22.829H6.791a.7.7,0,1,0,0,1.367H23.878a.7.7,0,1,0,0-1.367Zm-9.9-16.835a.139.139,0,0,1,.135-.144h.532a.14.14,0,0,1,.136.144v.732a.139.139,0,0,0,.136.144h.835a.139.139,0,0,0,.135-.144V5.994a.14.14,0,0,1,.136-.144h.528a.14.14,0,0,1,.136.144V8.586a.14.14,0,0,1-.136.144h-.528a.141.141,0,0,1-.136-.144V7.757a.139.139,0,0,0-.135-.144h-.835a.14.14,0,0,0-.136.144v.829a.14.14,0,0,1-.136.144h-.532a.14.14,0,0,1-.135-.144V5.994ZM12.516,18.665h-2.9V16.614h2.9Zm0-3.418h-2.9V13.2h2.9Zm0-3.417h-2.9V9.78h2.9Zm4.272,9.077h-2.9V16.614h2.9v4.293Zm0-5.66h-2.9V13.2h2.9v2.05Zm0-3.417h-2.9V9.78h2.9v2.05Zm4.272,6.834h-2.9v-2.05h2.9Zm0-3.418h-2.9V13.2h2.9Zm0-3.417h-2.9V9.78h2.9Z" transform="translate(-5.937 -5)" fill="#fff"/>
  </g>
</svg>
