<svg xmlns="http://www.w3.org/2000/svg" width="14" height="17.697" viewBox="0 0 14 17.697"><g transform="translate(-32 -25.997)"><g transform="translate(32 25.997)"><path d="M44.387,33.049V31.2a5.2,5.2,0,1,0-10.4,0V33A2.4,2.4,0,0,0,32,35.308v6.028a2.282,2.282,0,0,0,2.308,2.359h9.206A2.428,2.428,0,0,0,46,41.336V35.308A2.293,2.293,0,0,0,44.387,33.049Zm-3.928,7.279H37.542V36.245h2.917Zm1.984-7.38H35.928V31.2a3.257,3.257,0,1,1,6.514,0Z" transform="translate(-32 -25.997)" fill="#26698e"/></g></g></svg>