<svg xmlns="http://www.w3.org/2000/svg" width="16.297" height="19.332" viewBox="0 0 16.297 19.332"><g transform="translate(-9.87 -2.5)"><g transform="translate(9.87 2.5)"><path d="M33.887,45.608h6.858a1.8,1.8,0,0,1,.672.142V44.265A3.769,3.769,0,0,0,37.652,40.5H33.643A3.756,3.756,0,0,0,30,43.308,5.1,5.1,0,0,1,33.887,45.608Z" transform="translate(-25.904 -32.767)" fill="#1d8ccc"/><circle cx="3.337" cy="3.337" r="3.337" transform="translate(6.396 0)" fill="#1d8ccc"/><path d="M26.095,64.64l-1.241-1.16a.231.231,0,0,0-.163-.061H17.548a.83.83,0,0,1-.733-.427A3.711,3.711,0,0,0,9.876,64.6a3.71,3.71,0,0,0,6.939,2.015.813.813,0,0,1,.733-.407h1.4a.231.231,0,0,0,.163-.061l.692-.692a.212.212,0,0,1,.326,0l.692.692a.231.231,0,0,0,.163.061h.672a.231.231,0,0,0,.163-.061l.692-.692a.212.212,0,0,1,.326,0l.692.692a.231.231,0,0,0,.163.061h.956a.231.231,0,0,0,.163-.061l1.241-1.16A.212.212,0,0,0,26.095,64.64ZM12.46,65.922A1.119,1.119,0,1,1,13.58,64.8,1.129,1.129,0,0,1,12.46,65.922Z" transform="translate(-9.87 -49.174)" fill="#1d8ccc"/></g></g></svg>