<svg xmlns="http://www.w3.org/2000/svg" width="40.116" height="24.003" viewBox="0 0 40.116 24.003"><g transform="translate(-57.441 172.326)"><g transform="translate(57.441 -172.326)"><path d="M81.443-160.325a12,12,0,0,1-12,12,12,12,0,0,1-12-12,12,12,0,0,1,12-12,12,12,0,0,1,12,12" transform="translate(-57.441 172.326)" fill="#ed192d"/><path d="M147.581-172.326a11.96,11.96,0,0,0-8.057,3.107,12.257,12.257,0,0,0-1.211,1.27h2.425a12.312,12.312,0,0,1,.915,1.271H137.4a12.055,12.055,0,0,0-.691,1.271h5.637a11.909,11.909,0,0,1,.508,1.27H136.2a11.88,11.88,0,0,0-.349,1.271H143.2a12.065,12.065,0,0,1,.27,2.541,11.984,11.984,0,0,1-.618,3.813H136.2a11.989,11.989,0,0,0,.508,1.271h5.638a11.952,11.952,0,0,1-.692,1.271H137.4a12.093,12.093,0,0,0,.915,1.27h2.424a11.994,11.994,0,0,1-1.212,1.271,11.957,11.957,0,0,0,8.057,3.106,12,12,0,0,0,12-12,12,12,0,0,0-12-12" transform="translate(-119.467 172.326)" fill="#f9a91f"/><path d="M241.785-84.333a.388.388,0,0,1,.388-.388.387.387,0,0,1,.387.388.387.387,0,0,1-.387.388A.388.388,0,0,1,241.785-84.333Zm.388.295a.3.3,0,0,0,.294-.295.294.294,0,0,0-.294-.294.294.294,0,0,0-.3.294A.3.3,0,0,0,242.173-84.038Zm-.053-.125h-.079v-.34h.144a.16.16,0,0,1,.087.016.1.1,0,0,1,.043.085.093.093,0,0,1-.059.088l.063.15h-.088l-.052-.134h-.058Zm0-.193h.044a.1.1,0,0,0,.048-.007.046.046,0,0,0,.02-.039.044.044,0,0,0-.02-.035.108.108,0,0,0-.05-.007h-.043v.087" transform="translate(-203.269 103.024)" fill="#f9a91f"/><path d="M91.386-119.406a2.22,2.22,0,0,0-.291-.021c-.738,0-1.112.253-1.112.754a.454.454,0,0,0,.467.5C90.981-118.169,91.364-118.674,91.386-119.406Zm.948,2.206h-1.08l.025-.513a1.636,1.636,0,0,1-1.366.6,1.218,1.218,0,0,1-1.19-1.352c0-1.206.842-1.909,2.287-1.909a4.476,4.476,0,0,1,.531.038,1.22,1.22,0,0,0,.051-.321c0-.328-.227-.451-.835-.451a4.351,4.351,0,0,0-1.379.223c.014-.082.181-1.113.181-1.113a5.178,5.178,0,0,1,1.559-.262c1.119,0,1.712.5,1.71,1.452a6.35,6.35,0,0,1-.106.981c-.113.717-.356,2.254-.389,2.629" transform="translate(-82.187 132.722)" fill="#16326c"/><path d="M66.332-121.086h-1.3l.747-4.679-1.667,4.679h-.888l-.11-4.653-.784,4.653h-1.22l1.019-6.088H64l.113,3.407,1.143-3.407H67.34l-1.008,6.088" transform="translate(-60.341 136.607)" fill="#16326c"/><path d="M189.626-119.406a2.211,2.211,0,0,0-.29-.021c-.739,0-1.112.253-1.112.754a.454.454,0,0,0,.467.5C189.221-118.169,189.6-118.674,189.626-119.406Zm.949,2.206h-1.079l.024-.513a1.635,1.635,0,0,1-1.365.6,1.217,1.217,0,0,1-1.19-1.352c0-1.206.842-1.909,2.287-1.909a4.479,4.479,0,0,1,.531.038,1.22,1.22,0,0,0,.05-.321c0-.328-.227-.451-.835-.451a4.36,4.36,0,0,0-1.38.223c.014-.082.182-1.113.182-1.113a5.174,5.174,0,0,1,1.558-.262c1.12,0,1.712.5,1.711,1.452a6.323,6.323,0,0,1-.106.981c-.113.717-.356,2.254-.388,2.629" transform="translate(-159.902 132.722)" fill="#16326c"/><path d="M126.274-119.694a2.978,2.978,0,0,1-.936.16.953.953,0,0,1-1.029-1.088,11.457,11.457,0,0,1,.178-1.319c.075-.463.565-3.378.565-3.378h1.3l-.151.749h.782l-.176,1.19h-.785c-.151.941-.365,2.114-.367,2.27,0,.255.136.367.446.367a1.057,1.057,0,0,0,.351-.047l-.172,1.1" transform="translate(-110.337 135.14)" fill="#16326c"/><path d="M139.341-117.316a4.4,4.4,0,0,1-1.329.2,1.969,1.969,0,0,1-2.206-2.208c0-1.692.961-2.938,2.267-2.938a1.654,1.654,0,0,1,1.75,1.791,5.3,5.3,0,0,1-.16,1.218h-2.579c-.087.718.372,1.017,1.126,1.017a3.072,3.072,0,0,0,1.346-.311Zm-.728-2.935c.008-.1.137-.884-.6-.884-.413,0-.707.314-.827.884h1.43" transform="translate(-119.433 132.722)" fill="#16326c"/><path d="M107.877-120.586a1.445,1.445,0,0,0,.992,1.382c.527.248.609.322.609.546,0,.309-.233.448-.748.448a3.659,3.659,0,0,1-1.168-.2l-.179,1.144a6.049,6.049,0,0,0,1.356.146c1.375,0,2.01-.523,2.01-1.654a1.356,1.356,0,0,0-.918-1.38c-.546-.25-.609-.307-.609-.538,0-.268.217-.4.638-.4a7.2,7.2,0,0,1,.936.074l.185-1.148a8.768,8.768,0,0,0-1.147-.1c-1.457,0-1.962.761-1.957,1.676" transform="translate(-96.949 132.722)" fill="#16326c"/><path d="M160.852-127.345a2.48,2.48,0,0,1,1.164.329l.213-1.321a3.825,3.825,0,0,0-1.432-.515,2.6,2.6,0,0,0-2.128,1.147c-.756-.25-1.068.256-1.448.76l-.338.079a2.5,2.5,0,0,0,.041-.5h-1.2c-.163,1.533-.453,3.084-.68,4.618l-.059.333h1.3c.218-1.414.336-2.319.409-2.932l.491-.272c.074-.273.3-.365.763-.354a5.564,5.564,0,0,0-.092,1.015c0,1.62.875,2.628,2.277,2.628a4.073,4.073,0,0,0,1.152-.178l.229-1.387a2.539,2.539,0,0,1-1.107.312c-.757,0-1.215-.559-1.215-1.483,0-1.341.681-2.28,1.654-2.28" transform="translate(-134.608 137.936)" fill="#16326c"/><path d="M212.491-127.174l-.289,1.759a1.63,1.63,0,0,0-1.244-.808,2.018,2.018,0,0,0-1.648,1.232,10.7,10.7,0,0,1-1.11-.306v.005a7.23,7.23,0,0,0,.058-.745h-1.2c-.163,1.533-.453,3.084-.679,4.618l-.06.333h1.3c.176-1.143.311-2.092.41-2.845.445-.4.669-.753,1.118-.73a4.246,4.246,0,0,0-.316,1.606c0,1.237.626,2.054,1.573,2.054a1.536,1.536,0,0,0,1.2-.546l-.061.46h1.233l.992-6.087Zm-1.63,4.944c-.443,0-.667-.329-.667-.976,0-.973.419-1.663,1.01-1.663.448,0,.69.341.69.97,0,.982-.426,1.669-1.033,1.669" transform="translate(-175.216 136.608)" fill="#16326c"/><path d="M68.126-122.814h-1.3l.747-4.679L65.9-122.814h-.888l-.11-4.652-.785,4.652H62.9L63.92-128.9h1.874l.052,3.768L67.11-128.9h2.023l-1.008,6.087" transform="translate(-61.76 137.974)" fill="#fff"/><path d="M93.182-121.135a2.175,2.175,0,0,0-.291-.02c-.738,0-1.112.253-1.112.753a.455.455,0,0,0,.467.5C92.776-119.9,93.159-120.4,93.182-121.135Zm.948,2.205H93.05l.025-.513a1.637,1.637,0,0,1-1.366.6,1.218,1.218,0,0,1-1.19-1.353c0-1.206.842-1.908,2.288-1.908a4.341,4.341,0,0,1,.531.039,1.226,1.226,0,0,0,.051-.322c0-.328-.227-.449-.835-.449a4.326,4.326,0,0,0-1.38.222c.014-.082.181-1.113.181-1.113a5.192,5.192,0,0,1,1.559-.262c1.119,0,1.711.5,1.71,1.452a6.328,6.328,0,0,1-.106.981c-.113.717-.356,2.255-.389,2.629" transform="translate(-83.607 134.09)" fill="#fff"/><path d="M174.907-129.313l-.213,1.321a2.485,2.485,0,0,0-1.164-.329c-.973,0-1.655.94-1.655,2.281,0,.924.459,1.482,1.216,1.482a2.52,2.52,0,0,0,1.107-.312l-.229,1.388a4.075,4.075,0,0,1-1.151.178c-1.4,0-2.277-1.009-2.277-2.628,0-2.176,1.208-3.7,2.934-3.7a4.506,4.506,0,0,1,1.432.316" transform="translate(-146.91 138.551)" fill="#fff"/><path d="M191.421-121.135a2.161,2.161,0,0,0-.29-.02c-.738,0-1.112.253-1.112.753a.455.455,0,0,0,.467.5C191.017-119.9,191.4-120.4,191.421-121.135Zm.948,2.205H191.29l.025-.513a1.636,1.636,0,0,1-1.365.6,1.218,1.218,0,0,1-1.19-1.353c0-1.206.841-1.908,2.287-1.908a4.326,4.326,0,0,1,.531.039,1.234,1.234,0,0,0,.051-.322c0-.328-.226-.449-.835-.449a4.33,4.33,0,0,0-1.379.222c.014-.082.181-1.113.181-1.113a5.2,5.2,0,0,1,1.56-.262c1.119,0,1.712.5,1.71,1.452a6.3,6.3,0,0,1-.105.981c-.113.717-.356,2.255-.389,2.629" transform="translate(-161.322 134.09)" fill="#fff"/><path d="M128.069-121.422a2.986,2.986,0,0,1-.936.161.953.953,0,0,1-1.03-1.087,11.444,11.444,0,0,1,.179-1.32c.075-.463.565-3.379.565-3.379h1.3l-.151.75h.664l-.177,1.189h-.667c-.15.942-.365,2.114-.368,2.27,0,.256.137.367.446.367a1.048,1.048,0,0,0,.351-.047l-.173,1.1" transform="translate(-111.757 136.507)" fill="#fff"/><path d="M141.137-119.044a4.442,4.442,0,0,1-1.329.2,1.968,1.968,0,0,1-2.206-2.208c0-1.693.961-2.939,2.266-2.939a1.654,1.654,0,0,1,1.75,1.792,5.359,5.359,0,0,1-.159,1.217H138.88c-.087.718.372,1.018,1.125,1.018a3.066,3.066,0,0,0,1.347-.312Zm-.728-2.936c.007-.1.137-.884-.6-.884-.412,0-.707.315-.827.884h1.43" transform="translate(-120.854 134.09)" fill="#fff"/><path d="M109.672-122.315a1.446,1.446,0,0,0,.992,1.383c.528.248.609.322.609.546,0,.308-.233.448-.748.448a3.676,3.676,0,0,1-1.168-.195s-.171,1.091-.179,1.143a6.025,6.025,0,0,0,1.356.147c1.375,0,2.01-.523,2.01-1.655a1.354,1.354,0,0,0-.918-1.379c-.546-.251-.609-.307-.609-.538,0-.268.217-.405.638-.405a7.2,7.2,0,0,1,.936.075l.186-1.148a8.864,8.864,0,0,0-1.147-.1c-1.458,0-1.962.761-1.958,1.676" transform="translate(-98.369 134.09)" fill="#fff"/><path d="M224.1-122.814h-1.232l.061-.461a1.535,1.535,0,0,1-1.2.547c-.947,0-1.573-.816-1.573-2.055,0-1.646.971-3.034,2.12-3.034a1.47,1.47,0,0,1,1.244.675l.289-1.759H225.1Zm-1.922-1.144c.607,0,1.033-.688,1.033-1.668,0-.629-.243-.971-.691-.971-.591,0-1.01.69-1.01,1.663,0,.648.225.975.668.975" transform="translate(-186.161 137.974)" fill="#fff"/><path d="M208.858-123.661c-.163,1.532-.453,3.084-.679,4.617l-.059.333h1.3c.466-3.027.578-3.618,1.31-3.544a4.862,4.862,0,0,1,.494-1.436c-.546-.114-.85.195-1.25.781a4.542,4.542,0,0,0,.078-.751h-1.2" transform="translate(-176.637 133.871)" fill="#fff"/><path d="M157.523-123.661c-.164,1.532-.454,3.084-.68,4.617l-.059.333h1.3c.466-3.027.578-3.618,1.308-3.544a4.893,4.893,0,0,1,.5-1.436c-.545-.114-.85.195-1.249.781a4.486,4.486,0,0,0,.078-.751h-1.2" transform="translate(-136.027 133.871)" fill="#fff"/><path d="M241.782-103.09a.388.388,0,0,1,.388-.388.387.387,0,0,1,.387.388.387.387,0,0,1-.387.387A.388.388,0,0,1,241.782-103.09Zm.388.294a.294.294,0,0,0,.295-.294.3.3,0,0,0-.295-.295.3.3,0,0,0-.294.295A.3.3,0,0,0,242.17-102.8Zm-.052-.125h-.079v-.34h.144a.158.158,0,0,1,.086.017.1.1,0,0,1,.043.085.093.093,0,0,1-.059.088l.062.15h-.088l-.052-.134h-.058Zm0-.192h.044a.1.1,0,0,0,.048-.007.046.046,0,0,0,.02-.039.045.045,0,0,0-.019-.035.112.112,0,0,0-.05-.006h-.043v.087" transform="translate(-203.267 117.863)" fill="#fff"/></g></g></svg>