<svg xmlns="http://www.w3.org/2000/svg" width="30.007" height="17.954" viewBox="0 0 30.007 17.954"><g transform="translate(-57.441 172.326)"><g transform="translate(57.441 -172.326)"><path d="M75.395-163.349a8.977,8.977,0,0,1-8.977,8.977,8.977,8.977,0,0,1-8.977-8.977,8.977,8.977,0,0,1,8.977-8.977,8.977,8.977,0,0,1,8.977,8.977" transform="translate(-57.441 172.326)" fill="#ed192d"/><path d="M144.624-172.326A8.946,8.946,0,0,0,138.6-170a9.172,9.172,0,0,0-.906.95h1.814a9.212,9.212,0,0,1,.685.951h-3.183a9.016,9.016,0,0,0-.517.951h4.217a8.909,8.909,0,0,1,.38.95H136.11a8.888,8.888,0,0,0-.261.951h5.5a9.024,9.024,0,0,1,.2,1.9,8.964,8.964,0,0,1-.462,2.852H136.11a8.963,8.963,0,0,0,.38.951h4.217a8.941,8.941,0,0,1-.518.951h-3.182a9.049,9.049,0,0,0,.685.95h1.813a8.972,8.972,0,0,1-.907.951,8.944,8.944,0,0,0,6.026,2.323,8.977,8.977,0,0,0,8.977-8.977,8.978,8.978,0,0,0-8.977-8.977" transform="translate(-123.595 172.326)" fill="#f9a91f"/><path d="M241.785-84.43a.29.29,0,0,1,.29-.29.29.29,0,0,1,.29.29.29.29,0,0,1-.29.29A.29.29,0,0,1,241.785-84.43Zm.29.221a.221.221,0,0,0,.22-.221.22.22,0,0,0-.22-.22.22.22,0,0,0-.221.22A.221.221,0,0,0,242.075-84.21Zm-.04-.093h-.059v-.254h.108a.12.12,0,0,1,.065.012.078.078,0,0,1,.032.064.069.069,0,0,1-.044.066l.047.112h-.066l-.039-.1h-.044Zm0-.144h.033a.078.078,0,0,0,.036,0,.035.035,0,0,0,.015-.029.033.033,0,0,0-.015-.026.08.08,0,0,0-.038,0h-.032v.065" transform="translate(-212.975 98.412)" fill="#f9a91f"/><path d="M90.715-120.126a1.661,1.661,0,0,0-.218-.015c-.552,0-.832.19-.832.564a.34.34,0,0,0,.349.377C90.412-119.2,90.7-119.578,90.715-120.126Zm.709,1.65h-.808l.018-.384a1.223,1.223,0,0,1-1.021.448.911.911,0,0,1-.89-1.011c0-.9.63-1.428,1.711-1.428a3.346,3.346,0,0,1,.4.029.913.913,0,0,0,.038-.24c0-.245-.17-.337-.625-.337a3.255,3.255,0,0,0-1.032.167c.01-.061.135-.833.135-.833a3.873,3.873,0,0,1,1.166-.2c.837,0,1.28.376,1.279,1.086a4.748,4.748,0,0,1-.079.734c-.084.536-.266,1.686-.291,1.966" transform="translate(-83.834 130.086)" fill="#16326c"/><path d="M65.015-122.62h-.975l.559-3.5-1.247,3.5h-.664l-.082-3.481-.587,3.481h-.912l.762-4.554h1.4l.085,2.549.855-2.549h1.559l-.754,4.554" transform="translate(-60.534 134.23)" fill="#16326c"/><path d="M188.955-120.126a1.654,1.654,0,0,0-.217-.015c-.553,0-.832.19-.832.564a.34.34,0,0,0,.349.377C188.652-119.2,188.938-119.578,188.955-120.126Zm.71,1.65h-.807l.018-.384a1.223,1.223,0,0,1-1.021.448.911.911,0,0,1-.89-1.011c0-.9.63-1.428,1.711-1.428a3.348,3.348,0,0,1,.4.029.912.912,0,0,0,.038-.24c0-.245-.17-.337-.625-.337a3.262,3.262,0,0,0-1.032.167c.011-.061.136-.833.136-.833a3.87,3.87,0,0,1,1.165-.2c.838,0,1.28.376,1.28,1.086a4.73,4.73,0,0,1-.079.734c-.084.536-.266,1.686-.29,1.966" transform="translate(-166.721 130.086)" fill="#16326c"/><path d="M125.779-121.112a2.228,2.228,0,0,1-.7.12.713.713,0,0,1-.77-.814,8.571,8.571,0,0,1,.133-.987c.056-.346.423-2.527.423-2.527h.969l-.113.561h.585l-.132.89h-.587c-.113.7-.273,1.581-.275,1.7,0,.191.1.274.334.274a.791.791,0,0,0,.263-.035l-.129.82" transform="translate(-113.858 132.666)" fill="#16326c"/><path d="M138.45-118.562a3.289,3.289,0,0,1-.994.15,1.473,1.473,0,0,1-1.65-1.652c0-1.266.719-2.2,1.7-2.2a1.237,1.237,0,0,1,1.309,1.34,3.966,3.966,0,0,1-.12.911h-1.929c-.065.537.278.761.842.761a2.3,2.3,0,0,0,1.007-.233Zm-.544-2.2c.006-.077.1-.661-.451-.661-.309,0-.529.235-.619.661h1.07" transform="translate(-123.559 130.086)" fill="#16326c"/><path d="M107.753-121.008a1.081,1.081,0,0,0,.742,1.034c.395.185.456.241.456.409,0,.231-.174.335-.56.335a2.737,2.737,0,0,1-.873-.147l-.134.855a4.525,4.525,0,0,0,1.014.109c1.028,0,1.5-.392,1.5-1.238a1.014,1.014,0,0,0-.687-1.032c-.408-.187-.456-.229-.456-.4,0-.2.162-.3.477-.3a5.388,5.388,0,0,1,.7.055l.139-.859a6.558,6.558,0,0,0-.858-.072c-1.09,0-1.468.569-1.464,1.254" transform="translate(-99.579 130.086)" fill="#16326c"/><path d="M159.375-127.725a1.855,1.855,0,0,1,.871.246l.159-.988a2.861,2.861,0,0,0-1.071-.385,1.941,1.941,0,0,0-1.591.858c-.566-.187-.8.191-1.083.568l-.253.059a1.867,1.867,0,0,0,.031-.372h-.9c-.122,1.146-.339,2.307-.508,3.454l-.044.249h.975c.163-1.057.252-1.734.306-2.193l.367-.2c.055-.2.226-.273.571-.265a4.162,4.162,0,0,0-.069.759c0,1.212.654,1.966,1.7,1.966a3.047,3.047,0,0,0,.862-.133l.171-1.038a1.9,1.9,0,0,1-.828.234c-.567,0-.909-.418-.909-1.11,0-1,.509-1.705,1.237-1.705" transform="translate(-139.744 135.647)" fill="#16326c"/><path d="M210.937-127.174l-.216,1.316a1.219,1.219,0,0,0-.93-.6,1.51,1.51,0,0,0-1.232.922,8,8,0,0,1-.83-.229v0a5.412,5.412,0,0,0,.043-.558h-.9c-.122,1.146-.339,2.307-.508,3.454l-.045.249h.975c.132-.855.232-1.565.307-2.128.333-.3.5-.563.836-.546a3.176,3.176,0,0,0-.236,1.2c0,.926.468,1.536,1.177,1.536a1.149,1.149,0,0,0,.9-.409l-.046.344h.922l.742-4.553Zm-1.219,3.7c-.332,0-.5-.246-.5-.73,0-.728.314-1.244.756-1.244.335,0,.516.255.516.725,0,.734-.319,1.249-.773,1.249" transform="translate(-183.054 134.231)" fill="#16326c"/><path d="M66.81-124.348h-.975l.558-3.5-1.247,3.5h-.664l-.082-3.48-.587,3.48H62.9l.762-4.553h1.4l.039,2.819.946-2.819h1.514l-.754,4.553" transform="translate(-62.048 135.688)" fill="#fff"/><path d="M92.511-121.854a1.628,1.628,0,0,0-.218-.015c-.552,0-.832.189-.832.563a.341.341,0,0,0,.349.378C92.207-120.929,92.494-121.307,92.511-121.854Zm.709,1.649h-.807l.019-.383a1.224,1.224,0,0,1-1.021.448.911.911,0,0,1-.89-1.012c0-.9.63-1.427,1.711-1.427a3.247,3.247,0,0,1,.4.029.917.917,0,0,0,.038-.241c0-.245-.17-.336-.625-.336a3.236,3.236,0,0,0-1.032.166c.01-.061.135-.833.135-.833a3.884,3.884,0,0,1,1.166-.2c.837,0,1.28.376,1.279,1.086a4.734,4.734,0,0,1-.079.734c-.085.536-.266,1.687-.291,1.966" transform="translate(-85.349 131.545)" fill="#fff"/><path d="M173.807-129.393l-.16.988a1.859,1.859,0,0,0-.87-.246c-.728,0-1.238.7-1.238,1.706,0,.691.343,1.109.91,1.109a1.885,1.885,0,0,0,.828-.234l-.171,1.038a3.048,3.048,0,0,1-.861.133c-1.049,0-1.7-.755-1.7-1.966,0-1.628.9-2.766,2.195-2.766a3.37,3.37,0,0,1,1.071.237" transform="translate(-152.865 136.303)" fill="#fff"/><path d="M190.751-121.854a1.617,1.617,0,0,0-.217-.015c-.552,0-.832.189-.832.563a.34.34,0,0,0,.349.378C190.448-120.929,190.734-121.307,190.751-121.854Zm.709,1.649h-.807l.018-.383a1.224,1.224,0,0,1-1.021.448.911.911,0,0,1-.89-1.012c0-.9.629-1.427,1.711-1.427a3.236,3.236,0,0,1,.4.029.923.923,0,0,0,.038-.241c0-.245-.169-.336-.625-.336a3.239,3.239,0,0,0-1.032.166c.01-.061.135-.833.135-.833a3.887,3.887,0,0,1,1.167-.2c.837,0,1.28.376,1.279,1.086a4.708,4.708,0,0,1-.079.734c-.085.536-.266,1.687-.291,1.966" transform="translate(-168.236 131.545)" fill="#fff"/><path d="M127.573-122.839a2.233,2.233,0,0,1-.7.12.713.713,0,0,1-.77-.813,8.559,8.559,0,0,1,.134-.987c.056-.346.423-2.527.423-2.527h.969l-.113.561h.5l-.132.89h-.5c-.113.7-.273,1.582-.275,1.7,0,.191.1.274.334.274a.784.784,0,0,0,.263-.035l-.129.82" transform="translate(-115.372 134.123)" fill="#fff"/><path d="M140.246-120.291a3.323,3.323,0,0,1-.994.15,1.472,1.472,0,0,1-1.65-1.652c0-1.266.719-2.2,1.695-2.2a1.238,1.238,0,0,1,1.309,1.341,4.009,4.009,0,0,1-.119.911h-1.929c-.065.537.278.761.842.761a2.293,2.293,0,0,0,1.008-.234Zm-.545-2.2c.005-.077.1-.661-.451-.661-.308,0-.529.236-.619.661h1.07" transform="translate(-125.074 131.545)" fill="#fff"/><path d="M109.548-122.737a1.081,1.081,0,0,0,.742,1.034c.395.186.456.241.456.409,0,.231-.174.335-.56.335a2.75,2.75,0,0,1-.873-.146l-.134.855a4.506,4.506,0,0,0,1.014.11c1.028,0,1.5-.391,1.5-1.238a1.013,1.013,0,0,0-.687-1.032c-.409-.188-.456-.23-.456-.4,0-.2.162-.3.477-.3a5.387,5.387,0,0,1,.7.056l.139-.859a6.631,6.631,0,0,0-.858-.073c-1.09,0-1.468.569-1.464,1.254" transform="translate(-101.093 131.545)" fill="#fff"/><path d="M223.11-124.348h-.922l.046-.345a1.148,1.148,0,0,1-.9.409c-.708,0-1.177-.61-1.177-1.537,0-1.232.726-2.27,1.586-2.27a1.1,1.1,0,0,1,.931.505l.216-1.316h.961Zm-1.438-.855c.454,0,.773-.514.773-1.248,0-.47-.182-.726-.517-.726-.442,0-.756.516-.756,1.244,0,.485.168.73.5.73" transform="translate(-194.728 135.688)" fill="#fff"/><path d="M208.672-123.675c-.122,1.146-.339,2.307-.508,3.454l-.044.249h.975c.349-2.265.433-2.706.98-2.651a3.637,3.637,0,0,1,.37-1.074c-.408-.085-.636.146-.935.584a3.4,3.4,0,0,0,.059-.562h-.9" transform="translate(-184.571 131.312)" fill="#fff"/><path d="M157.337-123.675c-.123,1.146-.339,2.307-.509,3.454l-.044.249h.975c.349-2.265.433-2.706.979-2.651a3.66,3.66,0,0,1,.37-1.074c-.408-.085-.636.146-.934.584a3.357,3.357,0,0,0,.058-.562h-.9" transform="translate(-141.258 131.312)" fill="#fff"/><path d="M241.782-103.188a.29.29,0,0,1,.29-.29.289.289,0,0,1,.29.29.29.29,0,0,1-.29.29A.29.29,0,0,1,241.782-103.188Zm.29.22a.22.22,0,0,0,.22-.22.22.22,0,0,0-.22-.221.22.22,0,0,0-.22.221A.22.22,0,0,0,242.072-102.968Zm-.039-.094h-.059v-.254h.108a.118.118,0,0,1,.065.013.075.075,0,0,1,.032.064.07.07,0,0,1-.044.066l.047.112h-.066l-.039-.1h-.044Zm0-.144h.033a.073.073,0,0,0,.036,0,.035.035,0,0,0,.015-.029.033.033,0,0,0-.014-.026.083.083,0,0,0-.038,0h-.032v.065" transform="translate(-212.972 114.238)" fill="#fff"/></g></g></svg>