<svg xmlns="http://www.w3.org/2000/svg" width="16.4" height="16.4" viewBox="0 0 16.4 16.4"><g transform="translate(-3.737 -3.4)"><g transform="translate(3.937 3.6)"><path d="M16.307,13.528a.542.542,0,0,1,0,.783,2.429,2.429,0,0,1-1.109.726,4.9,4.9,0,0,1-4.318-1.58A4.525,4.525,0,0,1,9.24,9.3,2.345,2.345,0,0,1,10,8.236a.6.6,0,0,1,.814,0L12.023,9.4a.542.542,0,0,1,0,.786l-.648.624s-.149.4.841,1.348,1.4.809,1.4.809l.656-.615a.593.593,0,0,1,.816,0Zm3.63-7.681V17.353A2.293,2.293,0,0,1,17.6,19.6H7.09a2.293,2.293,0,0,1-2.336-2.247V16.9H4.4a.45.45,0,1,1,0-.9h.35V13.667H4.4a.45.45,0,1,1,0-.9h.35V10.431H4.4a.45.45,0,1,1,0-.9h.35V7.2H4.4a.45.45,0,1,1,0-.9h.35V5.847A2.293,2.293,0,0,1,7.09,3.6H17.6a2.293,2.293,0,0,1,2.336,2.247Zm-.934,0A1.376,1.376,0,0,0,17.6,4.5H7.09a1.376,1.376,0,0,0-1.4,1.348V6.3h.35a.45.45,0,1,1,0,.9h-.35V9.533h.35a.45.45,0,1,1,0,.9h-.35v2.337h.35a.45.45,0,1,1,0,.9h-.35V16h.35a.45.45,0,1,1,0,.9h-.35v.449A1.376,1.376,0,0,0,7.09,18.7H17.6A1.376,1.376,0,0,0,19,17.353Z" transform="translate(-3.937 -3.6)" fill="#242a37" stroke="#242a37" stroke-width="0.4"/></g></g></svg>