<svg xmlns="http://www.w3.org/2000/svg" width="12.015" height="12.769" viewBox="0 0 12.015 12.769">
  <g id="noun_Pool_1923568" transform="translate(-4 -4)">
    <path id="Path_13223" data-name="Path 13223" d="M13.011,6.253V12.26H12.26V10.007H7.755V12.26H7V6.253a1.5,1.5,0,0,0-1.5-1.5V4A2.253,2.253,0,0,1,7.755,6.253V7H12.26V6.253a1.5,1.5,0,0,0-1.5-1.5V4A2.253,2.253,0,0,1,13.011,6.253Zm-.751,1.5H7.755v1.5H12.26ZM4,13.013a1.266,1.266,0,0,1,.818.284l.88.751a2.049,2.049,0,0,0,2.611,0l.88-.751a1.322,1.322,0,0,1,1.637,0l.88.751a2.05,2.05,0,0,0,2.611,0l.88-.751a1.266,1.266,0,0,1,.818-.284v-.756a2.007,2.007,0,0,0-1.305.47l-.88.751a1.322,1.322,0,0,1-1.637,0l-.88-.751a2.049,2.049,0,0,0-2.611,0l-.88.751a1.322,1.322,0,0,1-1.637,0l-.88-.751A2.007,2.007,0,0,0,4,12.256Zm12.015,1.5a2.007,2.007,0,0,0-1.305.47l-.88.75a1.324,1.324,0,0,1-1.637,0l-.88-.751a2.049,2.049,0,0,0-2.611,0l-.88.75a1.324,1.324,0,0,1-1.637,0l-.88-.751A2.007,2.007,0,0,0,4,14.509v.756a1.266,1.266,0,0,1,.818.284l.88.752a2.055,2.055,0,0,0,2.611,0l.88-.751a1.322,1.322,0,0,1,1.637,0l.88.752a2.054,2.054,0,0,0,2.611,0l.88-.751a1.266,1.266,0,0,1,.818-.284Z" fill="#13a869"/>
  </g>
</svg>
