<svg xmlns="http://www.w3.org/2000/svg" width="12.003" height="8.882" viewBox="0 0 12.003 8.882">
  <g id="noun_Arrow_2320225" transform="translate(-19.9 -28)">
    <path id="Path_13174" data-name="Path 13174" d="M31.783,32.881a.073.073,0,0,0,.02-.06.152.152,0,0,0,.04-.08c0-.02.02-.04.02-.08,0-.02.02-.06.02-.08,0-.04.02-.08.02-.12v-.08a.254.254,0,0,0-.02-.12c0-.04-.02-.06-.02-.08s-.02-.04-.02-.06c-.02-.04-.04-.06-.06-.1,0-.02-.02-.02-.02-.04-.04-.04-.06-.08-.1-.12L28.042,28.24a.806.806,0,0,0-1.14,1.14l2.261,2.261H20.7a.8.8,0,0,0,0,1.6h8.462L26.9,35.5a.8.8,0,1,0,1.12,1.14L31.663,33l.12-.12Z" fill="#f15922"/>
  </g>
</svg>
