<svg xmlns="http://www.w3.org/2000/svg" width="14.301" height="14.3" viewBox="0 0 14.301 14.3">
  <g id="Group_9876" data-name="Group 9876" transform="translate(-3.163 0.15)">
    <path id="Path_11540" data-name="Path 11540" d="M30.232,26.647a.212.212,0,0,0,.178.253h.5a1,1,0,0,0,.854-.469,38.8,38.8,0,0,0,2.777-5.16h3.382a1.371,1.371,0,0,0,0-2.742H34.54a43.411,43.411,0,0,0-2.777-5.16,1,1,0,0,0-.854-.469h-.5c-.142,0-.214.108-.178.253A51.827,51.827,0,0,1,31.478,18.6l-3.7.253a21.616,21.616,0,0,0-1.246-2.237.542.542,0,0,0-.427-.253h-.641c-.142,0-.214.108-.178.253a17.271,17.271,0,0,1,.641,3.284,17.271,17.271,0,0,1-.641,3.284.212.212,0,0,0,.178.253H26.1a.464.464,0,0,0,.427-.253,21.616,21.616,0,0,0,1.246-2.237l3.7.253A51.827,51.827,0,0,1,30.232,26.647Z" transform="translate(-21.961 -12.9)" fill="#fff" stroke="#fff" stroke-width="0.3"/>
  </g>
</svg>
