<svg xmlns="http://www.w3.org/2000/svg" width="14.01" height="12.044" viewBox="0 0 14.01 12.044">
  <g id="noun_Baggage_1089276" transform="translate(-24 -27.6)">
    <path id="Path_8615" data-name="Path 8615" d="M45.538,30.429H41.2V28.274c0-.377.377-.674.916-.674h2.91c.539,0,.916.269.916.674L45.969,30a.565.565,0,0,1-.108.3A.427.427,0,0,1,45.538,30.429Zm-3.53-.808h3.125V28.6a.174.174,0,0,0-.162-.162H42.143a.174.174,0,0,0-.162.162l.027,1.024Z" transform="translate(-12.566 0)" fill="#f15922"/>
    <g id="Group_3659" data-name="Group 3659" transform="translate(24 29.621)">
      <path id="Path_8616" data-name="Path 8616" d="M26.4,35.1h-1.32A1.053,1.053,0,0,0,24,36.124V44.1a1.02,1.02,0,0,0,1.078,1.024H26.4Z" transform="translate(-24 -35.1)" fill="#f15922"/>
      <rect id="Rectangle_1082" data-name="Rectangle 1082" width="7.598" height="10.023" transform="translate(3.206 0)" fill="#f15922"/>
      <path id="Path_8617" data-name="Path 8617" d="M68.42,35.1H67.1V45.123h1.32A1.053,1.053,0,0,0,69.5,44.1V36.124A1.053,1.053,0,0,0,68.42,35.1Z" transform="translate(-55.487 -35.1)" fill="#f15922"/>
    </g>
  </g>
</svg>
