<svg xmlns="http://www.w3.org/2000/svg" width="14.108" height="20.826" viewBox="0 0 14.108 20.826">
  <g id="noun_meal_3613815" transform="translate(-11 -1)">
    <path id="Path_8622" data-name="Path 8622" d="M14.023,1C12.344,1,11,2.948,11,5.367a4.614,4.614,0,0,0,1.982,4.1l-.571,10.682a1.567,1.567,0,0,0,1.612,1.68,1.635,1.635,0,0,0,1.612-1.68L15.064,9.465a4.614,4.614,0,0,0,1.982-4.1C17.046,2.948,15.7,1,14.023,1ZM12.68,3.956a3.115,3.115,0,0,1,.269-.739.323.323,0,1,1,.571.3,4.2,4.2,0,0,0-.2.6.306.306,0,0,1-.4.235A.365.365,0,0,1,12.68,3.956Zm.269,3.561a5.453,5.453,0,0,1-.437-2.15.336.336,0,1,1,.672,0,4.7,4.7,0,0,0,.369,1.881c.067.168,0,.4-.168.437A.336.336,0,0,1,12.948,7.517Z" transform="translate(0 0)" fill="#f15922"/>
    <path id="Path_8623" data-name="Path 8623" d="M43.367,1a.361.361,0,0,0-.336.336V5.7h-.672V1.336a.336.336,0,1,0-.672,0V5.7h-.672V1.336a.336.336,0,1,0-.672,0V5.7h-.672V1.336a.336.336,0,1,0-.672,0V7.382A2.412,2.412,0,0,0,40.31,9.5l-.571,10.648a1.614,1.614,0,1,0,3.225,0L42.393,9.5A2.373,2.373,0,0,0,43.7,7.382V1.336A.361.361,0,0,0,43.367,1ZM41.351,8.39a.336.336,0,1,1,0-.672.361.361,0,0,0,.336-.336.336.336,0,1,1,.672,0A.99.99,0,0,1,41.351,8.39Z" transform="translate(-18.595 0)" fill="#f15922"/>
  </g>
</svg>
