<svg xmlns="http://www.w3.org/2000/svg" width="15.142" height="13.854" viewBox="0 0 15.142 13.854">
  <g id="noun_change_124069" transform="translate(-8.427 -10.682)">
    <g id="Group_3705" data-name="Group 3705" transform="translate(9.399 11.2)">
      <path id="Path_8627" data-name="Path 8627" d="M22.355,12.463a7.235,7.235,0,0,0-6.449-.6A7.938,7.938,0,0,0,11.9,14.907l1.2.8a6.318,6.318,0,0,1,3.275-2.477,6.505,6.505,0,0,1,4.9.316l-1.064.831L25.6,17.151,23.27,11.2Z" transform="translate(-11.9 -11.2)" fill="#f15922" stroke="#f15922" stroke-width="0.5"/>
    </g>
    <g id="Group_3706" data-name="Group 3706" transform="translate(8.9 18.065)">
      <path id="Path_8628" data-name="Path 8628" d="M12.141,57.171a7.235,7.235,0,0,0,6.449.6A7.938,7.938,0,0,0,22.6,54.727l-1.2-.8a6.318,6.318,0,0,1-3.275,2.477,6.505,6.505,0,0,1-4.9-.316l1.064-.831L8.9,52.5l2.327,5.951Z" transform="translate(-8.9 -52.5)" fill="#f15922" stroke="#f15922" stroke-width="0.5"/>
    </g>
  </g>
</svg>
