<svg xmlns="http://www.w3.org/2000/svg" width="18.295" height="14.355" viewBox="0 0 18.295 14.355">
  <g id="noun_Flight_3405693_1_" data-name="noun_Flight_3405693 (1)" transform="translate(-2.35 -12.75)">
    <g id="Group_4245" data-name="Group 4245" transform="translate(2.5 12.9)">
      <path id="Path_11540" data-name="Path 11540" d="M27.912,20.117a.111.111,0,0,0,.095.133h.265A.533.533,0,0,0,28.727,20,20.282,20.282,0,0,0,30.2,17.295H32a.72.72,0,0,0,0-1.44H30.2a22.693,22.693,0,0,0-1.477-2.709.533.533,0,0,0-.455-.246h-.265a.1.1,0,0,0-.095.133,26.9,26.9,0,0,1,.663,2.86l-1.97.133a11.306,11.306,0,0,0-.663-1.174.289.289,0,0,0-.227-.133h-.341a.1.1,0,0,0-.095.133,8.96,8.96,0,0,1,.341,1.724,8.96,8.96,0,0,1-.341,1.724.111.111,0,0,0,.095.133h.341a.247.247,0,0,0,.227-.133,11.305,11.305,0,0,0,.663-1.174l1.97.133A26.9,26.9,0,0,1,27.912,20.117Z" transform="translate(-20.961 -12.9)" fill="#fff" stroke="#fff" stroke-width="0.3"/>
      <path id="Path_11541" data-name="Path 11541" d="M42.75,50.118h-.341a.247.247,0,0,0-.227.133,11.3,11.3,0,0,0-.663,1.174l-1.97-.133a23.729,23.729,0,0,1,.663-2.86.111.111,0,0,0-.095-.133h-.265a.533.533,0,0,0-.455.246,20.282,20.282,0,0,0-1.477,2.709h-1.8a.72.72,0,0,0,0,1.44h1.8A22.693,22.693,0,0,0,39.4,55.4a.533.533,0,0,0,.455.246h.265a.1.1,0,0,0,.095-.133,26.9,26.9,0,0,1-.663-2.86l1.97-.133a11.306,11.306,0,0,0,.663,1.174.289.289,0,0,0,.227.133h.341a.1.1,0,0,0,.095-.133,8.96,8.96,0,0,1-.341-1.724,8.96,8.96,0,0,1,.341-1.724A.1.1,0,0,0,42.75,50.118Z" transform="translate(-29.168 -41.594)" fill="#fff" stroke="#fff" stroke-width="0.3"/>
      <path id="Path_11542" data-name="Path 11542" d="M7.349,37.287H5.758A2.559,2.559,0,0,1,3.2,34.729v-.89a2.559,2.559,0,0,1,2.557-2.557.341.341,0,0,0,0-.682A3.258,3.258,0,0,0,2.5,33.858v.89a3.258,3.258,0,0,0,3.258,3.258H7.349a.34.34,0,0,0,.341-.341A.374.374,0,0,0,7.349,37.287Z" transform="translate(-2.5 -27.247)" fill="#fff" stroke="#fff" stroke-width="0.3"/>
      <path id="Path_11543" data-name="Path 11543" d="M72.032,30.5H70.441a.341.341,0,0,0,0,.682h1.591a2.559,2.559,0,0,1,2.557,2.557v.89a2.559,2.559,0,0,1-2.557,2.557.341.341,0,0,0,0,.682A3.258,3.258,0,0,0,75.29,34.61v-.89A3.25,3.25,0,0,0,72.032,30.5Z" transform="translate(-57.295 -27.166)" fill="#fff" stroke="#fff" stroke-width="0.3"/>
    </g>
  </g>
</svg>
