<svg xmlns="http://www.w3.org/2000/svg" width="13.641" height="16.6" viewBox="0 0 13.641 16.6">
  <g id="noun_window_seat_4017444" data-name="noun_window seat_4017444" transform="translate(-6.712 -5.123)">
    <path id="Path_13175" data-name="Path 13175" d="M17.091,13.322a.4.4,0,0,1-.4.4H12.081l.061.159c.351.725.747,1.324,1.1,1.324h5.929a1.186,1.186,0,0,1,1.186,1.186v.594a1.186,1.186,0,0,1-1.186,1.186H17.983l1.16,2.776a.592.592,0,0,1-.555.78H10.853a.592.592,0,0,1-.555-.78l1.21-2.776h-.64c-.018,0-.037-.006-.055-.006a1.228,1.228,0,0,1-1.184-.9L6.754,6.657a1.218,1.218,0,0,1,.873-1.493,1.234,1.234,0,0,1,1.509.862l2.489,6.5H16.3A.791.791,0,0,1,17.091,13.322ZM11.977,19.8a.591.591,0,0,0,.568.736H16.9a.591.591,0,0,0,.568-.736L16.8,18.162H12.645Z" transform="translate(0)" fill="#26698e" fill-rule="evenodd"/>
  </g>
</svg>
