<svg xmlns="http://www.w3.org/2000/svg" width="16.034" height="17.148" viewBox="0 0 16.034 17.148">
  <g id="noun_about_us_4149190" data-name="noun_about us_4149190" transform="translate(-5.577 -2.5)">
    <path id="Path_11602" data-name="Path 11602" d="M13.6,3.944a6.579,6.579,0,0,1,6.572,6.572,6.5,6.5,0,0,1-1.381,4.029,1.444,1.444,0,0,0-.276,1.171l.361,1.763-2.224-.747a1.444,1.444,0,0,0-.928,0A6.572,6.572,0,1,1,13.6,3.944m0-1.444a8.016,8.016,0,1,0,2.592,15.6l4.587,1.547-.848-4.215A8.016,8.016,0,0,0,13.6,2.5Z" fill="#0b151f"/>
    <path id="Path_11603" data-name="Path 11603" d="M44.965,20.376c.016.4-.348.722-.926.722a.793.793,0,0,1-.879-.722.825.825,0,0,1,.912-.736A.8.8,0,0,1,44.965,20.376ZM43.34,28.665V22.194H44.8v6.471Z" transform="translate(-30.8 -14.046)" fill="#0b151f"/>
  </g>
</svg>
