<svg xmlns="http://www.w3.org/2000/svg" width="16.448" height="16.4" viewBox="0 0 16.448 16.4">
  <g id="noun_call_2640501" transform="translate(-8.552 -8.601)">
    <g id="Group_4450" data-name="Group 4450" transform="translate(8.8 8.802)">
      <g id="Group_4449" data-name="Group 4449" transform="translate(0 0)">
        <path id="Path_11604" data-name="Path 11604" d="M23.439,21.956l-2.234-1.561a1.723,1.723,0,0,0-2.4.427l-.519.743a19.2,19.2,0,0,1-2.763-2.321A19.174,19.174,0,0,1,13.2,16.481l.743-.518a1.727,1.727,0,0,0,.427-2.4l-1.56-2.234a1.726,1.726,0,0,0-1.409-.746,1.614,1.614,0,0,0-.561.1,3.115,3.115,0,0,0-.581.285l-.308.217a2.363,2.363,0,0,0-.218.194,3.1,3.1,0,0,0-.794,1.415c-.643,2.411.95,6.055,3.963,9.069,2.531,2.531,5.571,4.1,7.934,4.1h0a4.413,4.413,0,0,0,1.133-.14,3.1,3.1,0,0,0,1.415-.794,2.292,2.292,0,0,0,.2-.231l.218-.31a3.111,3.111,0,0,0,.275-.565A1.7,1.7,0,0,0,23.439,21.956Zm0,1.731a2.4,2.4,0,0,1-.2.424l-.2.282a1.622,1.622,0,0,1-.138.153,2.415,2.415,0,0,1-1.105.615,3.716,3.716,0,0,1-.955.117h0c-2.187,0-5.041-1.5-7.447-3.9-2.8-2.8-4.357-6.257-3.785-8.4a2.418,2.418,0,0,1,.615-1.106,1.71,1.71,0,0,1,.14-.127l.279-.2a2.4,2.4,0,0,1,.439-.213.923.923,0,0,1,.322-.058,1.036,1.036,0,0,1,.843.451l1.56,2.233A1.036,1.036,0,0,1,13.55,15.4l-1.017.71a.345.345,0,0,0-.095.466,19.077,19.077,0,0,0,2.6,3.159,19.083,19.083,0,0,0,3.159,2.6.345.345,0,0,0,.466-.095l.71-1.017a1.06,1.06,0,0,1,1.441-.256l2.233,1.561A1.007,1.007,0,0,1,23.437,23.687Z" transform="translate(-8.8 -9.967)" fill="#0b151f" stroke="#000" stroke-width="0.4"/>
        <path id="Path_11605" data-name="Path 11605" d="M36.687,11.316A8.63,8.63,0,0,0,31.119,8.8a.346.346,0,0,0-.043.69,7.948,7.948,0,0,1,7.434,7.434.346.346,0,0,0,.345.324h.022a.346.346,0,0,0,.323-.367A8.631,8.631,0,0,0,36.687,11.316Z" transform="translate(-23.201 -8.802)" fill="#0b151f" stroke="#000" stroke-width="0.4"/>
        <path id="Path_11606" data-name="Path 11606" d="M30.7,15.481A5.875,5.875,0,0,1,36.2,20.975a.346.346,0,0,0,.345.324h.022a.346.346,0,0,0,.323-.367,6.566,6.566,0,0,0-6.141-6.141.346.346,0,0,0-.043.69Z" transform="translate(-22.956 -12.721)" fill="#0b151f" stroke="#000" stroke-width="0.4"/>
        <path id="Path_11607" data-name="Path 11607" d="M30.326,21.469a3.8,3.8,0,0,1,3.555,3.554.346.346,0,0,0,.345.324h.022a.346.346,0,0,0,.323-.367,4.493,4.493,0,0,0-4.2-4.2.346.346,0,0,0-.043.69Z" transform="translate(-22.697 -16.651)" fill="#0b151f" stroke="#000" stroke-width="0.4"/>
      </g>
    </g>
  </g>
</svg>
