<svg xmlns="http://www.w3.org/2000/svg" width="16.031" height="13.262" viewBox="0 0 16.031 13.262">
  <g id="noun_FAQ_2038263" transform="translate(-2.79 -10)">
    <g id="Group" transform="translate(2.79 10)">
      <g id="Group-2" data-name="Group" transform="translate(6.013 3.426)">
        <path id="Path" d="M41.651,30.675a2.018,2.018,0,0,0-1.411-.494,1.858,1.858,0,0,0-1.983,1.757l-.048.384,1.373.17.058-.367a.935.935,0,0,1,.231-.54.528.528,0,0,1,.382-.138.548.548,0,0,1,.406.158.457.457,0,0,1,.158.34.329.329,0,0,1-.042.17,1.7,1.7,0,0,1-.328.34,4.91,4.91,0,0,0-.477.465,1.769,1.769,0,0,0-.3.5,2.091,2.091,0,0,0-.138.759v.192l.012.373h1.346v-.377a1.92,1.92,0,0,1,.037-.431A.452.452,0,0,1,41,33.777a2.648,2.648,0,0,1,.329-.326,3.079,3.079,0,0,0,.679-.762,1.587,1.587,0,0,0,.2-.781A1.613,1.613,0,0,0,41.651,30.675Z" transform="translate(-38.21 -30.179)"/>
        <rect id="Path-2" data-name="Path" width="1.458" height="1.458" transform="translate(1.297 4.949)"/>
      </g>
      <g id="Group-3" data-name="Group" transform="translate(0)">
        <path id="Compound_Path" data-name="Compound Path" d="M18.174,23.259a.555.555,0,0,1-.129-.014l-3.55-.728a9.434,9.434,0,0,1-3.691.742c-4.414,0-8.015-2.974-8.015-6.621S6.391,10,10.8,10s8.015,2.974,8.015,6.629a5.908,5.908,0,0,1-1.528,3.9l1.382,1.672a.645.645,0,0,1-.5,1.056ZM10.8,11.29c-3.708,0-6.724,2.4-6.724,5.339S7.1,21.97,10.8,21.97a8.065,8.065,0,0,0,3.349-.713.645.645,0,0,1,.4-.044l1.959.4-.582-.706a.643.643,0,0,1,.051-.876,4.727,4.727,0,0,0,1.548-3.4C17.529,13.686,14.512,11.29,10.8,11.29Z" transform="translate(-2.79 -10)"/>
      </g>
    </g>
  </g>
</svg>
