<svg xmlns="http://www.w3.org/2000/svg" width="16" height="16" viewBox="0 0 16 16">
  <g id="noun_Language_1631767" transform="translate(-2 -2)">
    <g id="Group_4446" data-name="Group 4446" transform="translate(2 2)">
      <g id="Group_4445" data-name="Group 4445">
        <path id="Path_11600" data-name="Path 11600" d="M10,2a8,8,0,1,0,8,8A8,8,0,0,0,10,2Zm0,15.2c-.633,0-1.45-1.18-1.949-3.2h3.9C11.45,16.02,10.633,17.2,10,17.2Zm-2.12-4a17.447,17.447,0,0,1-.272-2.8h4.784a17.447,17.447,0,0,1-.272,2.8ZM2.82,10.4H6.808a18.489,18.489,0,0,0,.26,2.8H3.56A7.138,7.138,0,0,1,2.82,10.4ZM10,2.8c.633,0,1.45,1.18,1.949,3.2h-3.9C8.55,3.98,9.367,2.8,10,2.8Zm2.12,4a17.447,17.447,0,0,1,.272,2.8H7.608A17.447,17.447,0,0,1,7.88,6.8ZM6.808,9.6H2.82A7.138,7.138,0,0,1,3.56,6.8H7.068A18.489,18.489,0,0,0,6.808,9.6Zm6.384.8H17.18a7.138,7.138,0,0,1-.739,2.8H12.932A18.489,18.489,0,0,0,13.192,10.4Zm0-.8a18.489,18.489,0,0,0-.26-2.8H16.44a7.138,7.138,0,0,1,.739,2.8ZM15.983,6H12.768a8.475,8.475,0,0,0-1.243-3.034A7.217,7.217,0,0,1,15.983,6ZM8.474,2.966A8.475,8.475,0,0,0,7.232,6H4.017A7.217,7.217,0,0,1,8.474,2.966ZM4.017,14H7.232a8.476,8.476,0,0,0,1.243,3.034A7.217,7.217,0,0,1,4.017,14Zm7.508,3.034A8.475,8.475,0,0,0,12.768,14h3.214A7.217,7.217,0,0,1,11.526,17.034Z" transform="translate(-2 -2)" fill="#0b151f"/>
      </g>
    </g>
  </g>
</svg>
