<svg xmlns="http://www.w3.org/2000/svg" width="16.014" height="20.053" viewBox="0 0 16.014 20.053">
  <g id="noun_privacy_policy_3096991" data-name="noun_privacy policy_3096991" transform="translate(-4.84 -2)">
    <path id="Path_11608" data-name="Path 11608" d="M24.444,21.21,22.1,20.042a.666.666,0,0,0-.594,0L19.172,21.21a.666.666,0,0,0-.372.594c0,5.286,2.865,5.35,3.008,5.35s3.008-.057,3.008-5.35a.666.666,0,0,0-.372-.594Zm-2.636,4.605c-.559,0-1.59-.838-1.683-3.581l1.683-.852,1.662.831C23.376,25.005,22.352,25.786,21.808,25.815Z" transform="translate(-3.962 -5.101)"/>
    <path id="Path_11609" data-name="Path 11609" d="M18.849,2H9.488a.666.666,0,0,0-.258.05.652.652,0,0,0-.079.057.659.659,0,0,0-.136.086L5,6.2v.043a.6.6,0,0,0-.165.43V20.048a2.005,2.005,0,0,0,1.977,2.005H13.5a.67.67,0,0,0,0-1.339H6.817a.666.666,0,0,1-.666-.666V7.35H9.5a.666.666,0,0,0,.666-.666V3.339h8.687a.666.666,0,0,1,.666.666V14.032a.67.67,0,1,0,1.339,0V4.005A2.005,2.005,0,0,0,18.849,2ZM7.1,6.011,8.822,4.277V6.011Z"/>
    <path id="Path_11610" data-name="Path 11610" d="M17.563,12.141a2.671,2.671,0,1,0-2.671,2.671,2.671,2.671,0,0,0,2.671-2.671Zm-4.011,0a1.339,1.339,0,1,1,1.339,1.339,1.339,1.339,0,0,1-1.339-1.339Z" transform="translate(-2.095 -2.12)"/>
    <path id="Path_11611" data-name="Path 11611" d="M17.313,19.476a.666.666,0,0,0-.666-.666H11.885a.67.67,0,1,0,0,1.339h4.763a.666.666,0,0,0,.666-.673Z" transform="translate(-1.809 -4.771)"/>
    <path id="Path_11612" data-name="Path 11612" d="M11.885,22.54a.67.67,0,1,0,0,1.339h2.757a.67.67,0,1,0,0-1.339Z" transform="translate(-1.809 -5.829)"/>
  </g>
</svg>
