<svg id="Group_4655" data-name="Group 4655" xmlns="http://www.w3.org/2000/svg" width="16" height="16" viewBox="0 0 16 16">
  <path id="Path_11601" data-name="Path 11601" d="M14.715,6.715a8,8,0,1,0,8,8,8,8,0,0,0-8-8Zm0,.468h.006l.136,0-.013.5-.13,0-.105,0-.013-.5.112,0Zm-.366.009.012.5h-.009l-.226.017-.038-.494.232-.018h.028Zm.768,0,.247.019-.038.494-.247-.019Zm-1.287.042.062.492-.246.031-.062-.492Zm1.794,0,.232.03h.012l.014,0-.087.488-.01,0-.224-.028Zm-2.3.073.087.488-.117.021-.114.026-.111-.483.119-.027H13.2Zm2.8,0,.1.018h.012l.142.033-.112.483-.137-.032L16.039,7.8Zm-3.307.107.136.477-.239.068-.135-.477Zm3.815.007.238.068-.135.477L16.5,7.907Zm-4.3.139.159.47-.2.066-.027.01-.182-.461.033-.013.006,0,.006,0Zm4.788.008.178.061.006,0,.006,0,.055.022-.182.461-.05-.02-.173-.059Zm-5.264.168.182.461-.06.023-.156.071-.2-.452.16-.072.006,0,.006,0Zm5.74.009.045.018.006,0,.006,0,.182.082-.2.452-.178-.08-.037-.015Zm-6.214.205.226.441-.221.113-.226-.441Zm6.687.011.221.113-.226.441-.221-.113Zm-3.354.1a6.641,6.641,0,1,1-6.641,6.641A6.642,6.642,0,0,1,14.715,8.074Zm0,.118a6.523,6.523,0,1,0,6.523,6.523A6.522,6.522,0,0,0,14.715,8.192Zm-3.78.009.247.43-.116.067-.086.055-.268-.417.091-.059,0,0,.005,0Zm7.581.012.1.057.005,0,.005,0,.112.072-.268.417L18.364,8.7l-.1-.055Zm-8.021.263.287.4-.2.144-.287-.4Zm8.461.014.2.144-.287.4-.2-.144Zm-8.87.286.306.39-.15.118-.034.029-.325-.375.037-.032,0,0,0,0Zm9.279.015L19.5,8.9l0,0,0,0,.055.048-.325.375-.052-.045-.131-.1ZM9.695,9.1l.325.375-.035.03-.138.131L9.5,9.278l.141-.135,0,0,0,0Zm10.058.016.022.019,0,0,0,0,.158.151-.342.359-.155-.148-.016-.014ZM9.32,9.46l.359.342-.171.179L9.149,9.64Zm10.806.018.16.168,0,0,0,0,.01.012-.375.325-.006-.006-.157-.165ZM8.978,9.836l.375.325-.07.08-.08.1-.39-.306L8.9,9.928l0,0,0,0Zm11.489.018.056.065,0,0,0,0,.1.128-.39.306-.1-.121-.054-.062Zm-11.812.388.4.287-.144.2-.4-.288Zm12.134.02.144.2-.4.287-.144-.2Zm-12.421.4.418.268-.088.138-.036.063-.43-.247.039-.068,0-.005,0-.005Zm12.707.021.079.123,0,.005,0,.005.051.089-.43.247-.048-.084-.075-.117ZM8.108,11.1l.43.247-.01.017-.1.193-.441-.226.1-.2,0-.005,0-.005Zm13.226.021h0l0,.005,0,.005.112.219-.441.226-.107-.21,0-.009.194-.1Zm-13.459.444.452.2-.094.208,0,.007h0l-.021-.01L7.768,11.8l0-.01,0-.006,0-.006Zm13.69.022.088.194,0,.005,0,.006.013.033L21.209,12l-.012-.029-.084-.187ZM10.709,12a1.549,1.549,0,0,1,1.349.658,3.208,3.208,0,0,1,.469,1.879,3.453,3.453,0,0,1-.418,1.832l.469.589-.625.462-.4-.505a1.607,1.607,0,0,1-.8.193,1.526,1.526,0,0,1-1.341-.673,3.444,3.444,0,0,1-.462-1.948,3.134,3.134,0,0,1,.462-1.829A1.5,1.5,0,0,1,10.709,12Zm-3.032.024.461.182-.033.084-.047.137-.47-.159.048-.143,0-.006,0-.006Zm14.084.023.026.067,0,.006,0,.006.056.166-.47.159-.056-.164v0l-.022-.056Zm-7.541.087h1.236l1.287,4.853H15.6l-.185-.811H14.25l-.193.811H12.934Zm3.083,0h1.283a1.786,1.786,0,0,1,1.229.4,1.379,1.379,0,0,1,.451,1.087,1.472,1.472,0,0,1-.171.683,1.129,1.129,0,0,1-.5.494l.88,2.188H19.313l-.891-2.21H18.4v2.21H17.3Zm-9.795.382.477.135-.068.239L7.44,12.76Zm14.42.023.068.239-.477.135-.068-.238Zm-14.55.468.483.111-.039.169-.011.061-.488-.087.011-.064v-.012Zm14.679.024.036.155V13.2l.016.088-.488.087-.015-.085-.034-.146Zm-3.652.041V14.23q.731-.015.731-.513a.6.6,0,0,0-.171-.484A.892.892,0,0,0,18.4,13.077Zm-7.688.029q-.6,0-.6,1.4a3.16,3.16,0,0,0,.149,1.2.477.477,0,0,0,.44.3.635.635,0,0,0,.12-.014l-.433-.553.618-.462.284.363a4.643,4.643,0,0,0,.051-.818Q11.349,13.106,10.716,13.106Zm4.1.142q-.131,1.007-.367,2.061H15.2q-.247-1.083-.371-2.061Zm-7.537.263.488.087-.008.047-.024.186-.492-.062.025-.195v-.012Zm14.875.024,0,.027v.012l.028.218-.492.063-.027-.21,0-.023Zm-14.939.493.494.038-.019.247L7.2,14.275Zm15,.024.019.247-.494.038-.019-.247Zm-15.03.483.5.012,0,.167,0,.068-.5.013,0-.074v-.012Zm15.056.024,0,.149L22,14.715l.248.006-.006.248-.5-.013.006-.241,0-.143Zm-14.557.471v.042l.015.192-.494.038-.015-.195v-.065Zm14.047.161.494.037-.019.247-.495-.037ZM7.723,15.5l.031.246-.492.063-.031-.246Zm13.961.172.492.062-.015.121v.012l-.022.124-.488-.087.021-.12Zm-13.891.306.028.157.017.074-.483.111-.019-.082v-.012l-.029-.161Zm13.814.158.483.111-.056.242-.483-.112Zm-13.713.314.005.023.058.2-.477.135-.06-.21,0-.006v-.006l-.007-.029Zm13.6.155.477.135-.059.207,0,.006,0,.006-.011.031-.47-.159.008-.023Zm-13.465.3.08.235-.47.159-.08-.235Zm13.32.164.47.159-.025.073,0,.006,0,.006-.063.159-.461-.182.06-.151Zm-13.154.29.039.1.054.119-.452.2-.057-.126,0-.006,0-.005-.04-.1Zm12.981.149.452.2-.1.226-.452-.2Zm-12.791.283.113.221-.441.226-.113-.221Zm12.582.154.442.226-.067.132,0,.005,0,.005-.05.087-.43-.247.047-.082Zm-12.355.273.085.148.035.055-.417.267-.038-.06,0-.005,0-.005-.088-.153Zm12.124.143.148.095.278.159,0,0,0,.005,0,.005-.132.206-.417-.268Zm-11.87.269.014.021L9,18.82l-.4.287-.125-.176,0,0,0,0-.017-.027Zm11.605.132.4.287-.121.171,0,0,0,0-.024.031-.39-.307.017-.021,0,0Zm-11.328.25.144.184,0,0h0l-.008.006-.367.318-.007-.008,0,0,0,0-.146-.186Zm11.037.136.39.306-.039.05,0,0,0,0-.121.139-.375-.325.117-.135Zm-10.729.237.059.068h0l.1.105-.359.342-.109-.114,0,0,0,0-.059-.068ZM19.87,19.5l.359.342-.171.179-.359-.342Zm-10.094.223.179.171-.342.359-.179-.171Zm9.753.12.342.359-.087.083,0,0,0,0-.1.084L19.354,20l.091-.079Zm-9.4.207.106.092.075.059-.306.39-.079-.062,0,0,0,0-.111-.1Zm9.043.1.306.39-.195.153-.307-.39ZM10.5,20.35l.2.143-.287.4-.2-.143,0,0,0,0h0l.171-.217Zm8.289.1.287.4-.145.1,0,0-.005,0L18.863,21l-.268-.418.054-.035Zm-7.892.175.164.105h0l.033.019-.247.43-.035-.02-.005,0,0,0-.174-.112Zm7.49.093.268.417-.028.018-.005,0-.005,0-.186.107-.247-.43.184-.106h0Zm-7.075.156.05.029.159.081-.226.441-.164-.084-.006,0-.005,0-.055-.031Zm6.664.076.226.441-.216.11-.005,0-.006,0,0,0-.146-.324-.064-.125.006,0Zm-6.244.138.226.1-.2.452-.226-.1Zm5.808.071.2.452-.092.042-.006,0-.006,0-.137.054-.182-.461.133-.052Zm-5.363.118.119.047.1.035-.159.47-.108-.037-.006,0-.006,0-.125-.049Zm4.926.057.159.47-.235.079-.159-.47Zm-4.482.1.239.068-.135.477-.238-.068Zm4.021.047.135.477-.174.05-.006,0-.006,0-.065.015-.111-.483.059-.014Zm-3.554.079.21.048.02,0-.087.488-.027,0h-.012l-.215-.05Zm3.085.039.112.483-.046.011h-.012l-.2.035-.087-.488.191-.034Zm-2.612.057.079.014.154.02-.063.492-.158-.02h-.012l-.088-.016Zm2.148.024.062.492-.246.031-.062-.492Zm-1.681.037.247.019-.038.494-.247-.019Zm1.2.013.038.494-.158.012H15.1l-.09,0-.012-.5.084,0Zm-.718.016.2.005h.032l.013.5h-.05l-.21-.005Z" transform="translate(-6.715 -6.715)" fill="#0b151f"/>
</svg>
