<svg xmlns="http://www.w3.org/2000/svg" xmlns:xlink="http://www.w3.org/1999/xlink" width="20.072" height="15.054" viewBox="0 0 20.072 15.054">
  <defs>
    <clipPath id="clip-path">
      <path id="Path_11689" data-name="Path 11689" d="M-80,0h20.072V15.054H-80Z" fill="rgba(0,0,0,0.67)"/>
    </clipPath>
  </defs>
  <g id="saudi" transform="translate(80)" clip-path="url(#clip-path)">
    <path id="Path_11672" data-name="Path 11672" d="M-120,0h22.581V15.054H-120Z" transform="translate(38.746)" fill="#007d48" fill-rule="evenodd"/>
    <path id="Path_11673" data-name="Path 11673" d="M60.955,119.04c-.026.352-.057.971.241,1.034.361.035.162-.612.293-.729.025-.058.07-.058.074.015v.548a.263.263,0,0,0,.2.268c.095-.007.158,0,.2.088l.044.949s.22.063.23-.534a5.572,5.572,0,0,1-.023-.711c0-.067.087-.071.146-.038.094.067.137.149.283.116.223-.062.358-.17.361-.342a1.487,1.487,0,0,0-.1-.489c.01-.03-.043-.106-.033-.136.04.063.1.058.115,0a.489.489,0,0,0-.193-.3c-.079-.07-.195-.055-.237.09a.792.792,0,0,0,.182.528.517.517,0,0,1,.046.263.141.141,0,0,1-.184-.036s-.178-.133-.178-.163a.638.638,0,0,0-.016-.42.57.57,0,0,0-.118-.232c-.044-.047-.1-.047-.133,0a.8.8,0,0,0,.015.56c.041.12.1.2.074.2-.024.068-.075.052-.111-.026a1.957,1.957,0,0,1-.063-.514c-.016-.135-.033-.424-.122-.5-.054-.074-.135-.038-.163.03a2.422,2.422,0,0,0,.009.392,4.289,4.289,0,0,1,.11.63c.008.3-.172.129-.164-.018a1.342,1.342,0,0,0-.006-.57c-.029-.077-.064-.1-.135-.083-.057,0-.2.156-.243.419a2.385,2.385,0,0,0-.05.256c-.02.136-.11.232-.173-.019-.054-.183-.088-.633-.179-.527Z" transform="translate(-136.519 -114.773)" fill="#fff" fill-rule="evenodd"/>
    <path id="Path_11674" data-name="Path 11674" d="M63.692,177.383c-.319.156-.627.3-.941.452a.957.957,0,0,1,.745-.6c.194.005.145.075.2.152Z" transform="translate(-138.273 -171.673)" fill="#fff" fill-rule="evenodd"/>
    <path id="Path_11675" data-name="Path 11675" d="M77.628,120.847c-.5,1.279,1.162,1.457,1.347.052.017-.058.087-.115.1-.021-.038,1.272-1.282,1.359-1.493.959a1.232,1.232,0,0,1-.073-.43c-.031-.25-.162-.154-.183.094a1.547,1.547,0,0,0-.016.309c.066,1,1.668.573,1.928-.257.138-.459-.023-.8.052-.8.159.171.381.023.43-.037a.072.072,0,0,1,.11-.01.258.258,0,0,0,.388-.11,3.488,3.488,0,0,0,.052-.477c-.1.031-.176.052-.183.094l-.021.136c-.009.044-.1.045-.1-.01-.038-.175-.2-.2-.293.073-.065.052-.182.063-.194-.016.016-.182-.058-.206-.2-.121-.047-.36-.094-.7-.142-1.064.061,0,.117.044.173-.026a1.938,1.938,0,0,0-.262-.608c-.035-.042-.065-.016-.11-.005a.179.179,0,0,0-.126.22c.091.552.15.973.241,1.525.014.065-.04.15-.11.141-.119-.08-.148-.243-.351-.236a.4.4,0,0,0-.335.314.766.766,0,0,0,0,.362.3.3,0,0,0,.335.084c.089-.037.162-.126.194-.1s.005.32-.419.545c-.257.115-.461.142-.571-.068-.068-.131.005-.629-.163-.514Z" transform="translate(-152.374 -114.842)" fill="#fff" fill-rule="evenodd"/>
    <path id="Path_11676" data-name="Path 11676" d="M61.861,116.144a4.861,4.861,0,0,0,.571-.576c-.024-.021-.046-.037-.071-.058a.04.04,0,0,1,0-.068.187.187,0,0,0,.018-.286.285.285,0,0,0-.254,0,.213.213,0,0,0-.037.283c.063.03.126.093.084.128-.193.206-.721.562-.66.574A1.194,1.194,0,0,0,61.861,116.144Zm-2.848,1.91a.934.934,0,0,0-.095.828.206.206,0,0,0,.2.067.368.368,0,0,0,.133-.356c-.037-.058-.066-.067-.1-.018-.078.159-.111.05-.118-.039a2.041,2.041,0,0,1,.022-.446C59.073,117.965,59.053,118,59.013,118.054Zm7.559-.451c-.171-.368-.408-.732-.483-.872s-.644-.965-.728-1.058c-.185-.22.3.091-.061-.344-.138-.118-.146-.125-.26-.222-.058-.041-.2-.116-.223.008a.713.713,0,0,0,.013.26.921.921,0,0,0,.146.221,16.5,16.5,0,0,1,1.582,2.544c.078-.037.061-.475.015-.537Z" transform="translate(-134.503 -111.439)" fill="#fff" fill-rule="evenodd"/>
    <path id="Path_11677" data-name="Path 11677" d="M280.686,121.379c-.034.038.083.2.235.2a.892.892,0,0,0,.683-.547.974.974,0,0,0,.155-.419,9.168,9.168,0,0,0-.17-2.127.351.351,0,0,1,.007-.148c.016-.02.072,0,.1-.048s-.115-.411-.205-.552c-.032-.063-.043-.105-.1.007a.794.794,0,0,0-.089.4c.121.837.158,1.57.237,2.408a.331.331,0,0,1-.059.246A2.359,2.359,0,0,1,280.686,121.379Zm3.425,0c-.182.105-.182.226-.035.231a.906.906,0,0,0,.76-.363,1.206,1.206,0,0,0,.124-.469,9.087,9.087,0,0,0-.139-2.1,1.145,1.145,0,0,1-.025-.216c.016-.042.1,0,.129-.044s-.214-.375-.3-.516c-.032-.063-.043-.105-.1.007a.655.655,0,0,0-.053.4,18.96,18.96,0,0,1,.255,2.4.842.842,0,0,1-.05.214,1.711,1.711,0,0,1-.25.29c-.082.061-.258.12-.316.166Z" transform="translate(-349.368 -113.983)" fill="#fff" fill-rule="evenodd"/>
    <path id="Path_11678" data-name="Path 11678" d="M270.655,121.432c0-.213,0-.4,0-.555a.994.994,0,0,0-.09-.4,1.439,1.439,0,0,1-.044-.346c-.024-.129-.018-.321-.055-.474a1.636,1.636,0,0,1-.031-.269c.015-.043.072,0,.1-.048a1.708,1.708,0,0,0-.24-.668c-.034-.062-.1-.041-.172.06-.071.066-.045.217-.018.361a12.1,12.1,0,0,1,.288,2.713C270.38,121.883,270.657,121.577,270.655,121.432Zm-1.344-1.178c-.114,0-.354-.223-.424-.352a.237.237,0,0,1,.014-.189c.042-.028.108-.059.156-.029,0,0,.051.071.041.08.062.03.089.013.1-.013,0-.045-.018-.071-.019-.12a.133.133,0,0,1,.236-.069.5.5,0,0,1,.064.236c0,.038-.062-.007-.1,0s-.043.049-.046.086c-.006.1-.018.251-.02.368Zm-2.112,1.413a8.685,8.685,0,0,0-.015-.974c-.012-.4-.077-1.181-.109-1.311-.035-.245.1.027.082-.116a1.567,1.567,0,0,0-.339-.635c-.051-.073-.05-.088-.129.018a.741.741,0,0,0,.011.492,9.181,9.181,0,0,1,.213,1.432,11.564,11.564,0,0,1,.012,1.442c.086,0,.225-.139.273-.348Z" transform="translate(-335.776 -114.856)" fill="#fff" fill-rule="evenodd"/>
    <path id="Path_11679" data-name="Path 11679" d="M347.66,123.7c-.2-.339-.506-.705-.588-.842s-.769-1.024-.857-1.113c-.252-.264.115-.043-.048-.247a1.954,1.954,0,0,0-.3-.291c-.059-.038-.1-.112-.115.013a2.459,2.459,0,0,0-.008.329.443.443,0,0,0,.1.2,16.941,16.941,0,0,1,1.812,2.478C347.734,124.19,347.708,123.758,347.66,123.7Z" transform="translate(-412.391 -117.349)" fill="#fff" fill-rule="evenodd"/>
    <path id="Path_11680" data-name="Path 11680" d="M113.748,181.538c-.015.025-.047.058-.036.093a.084.084,0,0,0,.078.039c.033,0,.079.008.088-.012a.1.1,0,0,0,.016-.1A.086.086,0,0,0,113.748,181.538Z" transform="translate(-187.635 -175.814)" fill="#1ba400" fill-rule="evenodd"/>
    <path id="Path_11681" data-name="Path 11681" d="M115.241,120.644c.27.01.446.012.686.041,0,0,.207-.02.281-.032.312-.03.326.446.326.446,0,.279-.111.294-.249.323-.079.01-.12-.047-.161-.108a.407.407,0,0,1-.208.013c-.112-.007-.225-.007-.337-.014s-.183.012-.3,0c-.025.039-.057.092-.13.075s-.133-.177-.112-.307c.044-.093.032-.063.027-.1-1.1-.028-2.217-.077-3.3-.063-.847,0-1.683.039-2.519.074a1.111,1.111,0,0,1-1.022-.422c.021,0,1.138.063,1.465.042.6-.007,1.156-.056,1.771-.074,1.212.021,2.414.021,3.626.105a.169.169,0,0,1,.058-.313c.015-.01.023.093.05.091.143-.011.08.183.049.223Zm-4.867-6.682c-.184.525.105,1.1.306,1.044.145.06.237-.215.3-.516.04-.085.071-.094.092-.05-.005.4.029.489.132.611a.333.333,0,0,0,.435.008l.179-.179a.108.108,0,0,1,.149-.007c.055.05.047.135.164.195a.362.362,0,0,0,.358-.076c.066-.112.081-.151.112-.194.047-.062.127-.035.127-.015-.007.035-.054.07-.022.132.056.042.069.015.1.006.117-.056.2-.309.2-.309.005-.094-.048-.087-.082-.067s-.048.036-.092.063c-.057.008-.168.046-.222-.038a3.362,3.362,0,0,1-.1-.346c0-.007-.074-.162-.005-.172.035.006.109.026.121-.036.036-.061-.078-.233-.157-.321a.169.169,0,0,0-.253-.007c-.064.059-.055.124-.067.186a.29.29,0,0,0,.06.253.774.774,0,0,1,.142.514.208.208,0,0,1-.186.093c-.049-.011-.129-.032-.172-.347-.032-.239.008-.572-.094-.729-.037-.094-.063-.186-.152-.024a.375.375,0,0,0-.052.358.538.538,0,0,1-.049.708.176.176,0,0,1-.227.031.243.243,0,0,1-.135-.191,2.611,2.611,0,0,0-.021-.615.112.112,0,0,0-.186-.037,1.4,1.4,0,0,0-.338.693c-.052.168-.108.12-.147.052-.095-.089-.1-.785-.216-.671Z" transform="translate(-182.318 -109.984)" fill="#fff" fill-rule="evenodd"/>
    <path id="Path_11682" data-name="Path 11682" d="M104.813,118.974c.083-.059.044-.1.169.024a2.118,2.118,0,0,1,.272.919c-.007.076.047.123.071.107.014-.177.446-.424.841-.46.06-.013.031-.129.041-.188a.36.36,0,1,1,.708-.015c-.03.439-.487.513-.744.548-.039.015-.056.033,0,.055l1.076,0,.055.032c.007.026-.016,0-.058.074a.871.871,0,0,0-.108.339,5.269,5.269,0,0,1-.989.189c-.117.059-.175.138-.151.227.039.1.3.2.3.2.049.031.108.1-.014.251a1.184,1.184,0,0,1-1.072-.562c-.042-.033-.088,0-.117.042a1.66,1.66,0,0,1-.756.628.511.511,0,0,1-.522-.168c-.067-.078-.065-.163-.09-.182-.113.05-1.082.462-.959.27a6.739,6.739,0,0,1,1-.687c.026-.083.073-.366.216-.458.008,0-.023.166-.019.235s0,.08.008.065a2.6,2.6,0,0,0,.5-.465c.043-.06.013-.214.013-.218-.082-.211-.2-.229-.24-.334-.038-.14-.021-.3.059-.343a.159.159,0,0,1,.232.014.716.716,0,0,1,.19.349c-.015.046-.116-.03-.15-.008a.467.467,0,0,1,.113.228.7.7,0,0,1-.018.491,1.546,1.546,0,0,1-.66.682.166.166,0,0,0,.072.159.332.332,0,0,0,.275,0,1.6,1.6,0,0,0,.657-.687,1.5,1.5,0,0,0-.072-.65c-.085-.2-.186-.478-.186-.483,0-.123.007-.165.061-.227ZM102,117.838c.124.059.357.034.347-.166,0-.018,0-.077-.006-.094-.025-.059-.094-.044-.11.016,0,.02.009.052-.009.062s-.05,0-.048-.051a.094.094,0,0,0-.021-.048.04.04,0,0,0-.027-.007c-.017,0-.017.005-.026.02a.17.17,0,0,0-.01.046c0,.02-.01.027-.024.03s-.013,0-.026-.007-.017-.012-.017-.026a.157.157,0,0,0-.008-.049.052.052,0,0,0-.03-.016c-.068,0-.072.077-.068.107C101.906,117.662,101.9,117.8,102,117.838Z" transform="translate(-176.204 -113.855)" fill="#fff" fill-rule="evenodd"/>
    <path id="Path_11683" data-name="Path 11683" d="M217.749,120.441c.124.059.419.025.347-.166,0-.018,0-.077-.006-.094-.025-.059-.094-.044-.11.016,0,.02.009.052-.009.062s-.05,0-.048-.051a.094.094,0,0,0-.021-.048.04.04,0,0,0-.027-.007c-.017,0-.017.005-.026.02a.17.17,0,0,0-.01.046c0,.02-.01.027-.024.03s-.012,0-.026-.007-.017-.012-.017-.026a.157.157,0,0,0-.008-.049.052.052,0,0,0-.03-.016c-.068,0-.072.077-.068.107C217.659,120.265,217.657,120.4,217.749,120.441Zm2.117-.636c.124.059.357.034.347-.166,0-.018,0-.077-.006-.094-.025-.059-.094-.044-.11.016,0,.02.009.052-.009.062s-.05,0-.048-.051a.094.094,0,0,0-.021-.048.04.04,0,0,0-.027-.007c-.017,0-.017.005-.026.02a.17.17,0,0,0-.01.046c0,.02-.01.027-.024.03s-.013,0-.026-.007-.018-.012-.018-.026a.157.157,0,0,0-.008-.049.052.052,0,0,0-.03-.016c-.068,0-.072.077-.068.107C219.776,119.629,219.774,119.767,219.866,119.805Zm1.1,1.6a.752.752,0,0,0-.072.732.575.575,0,0,0,.267.3.188.188,0,0,0,.279-.03c.127-.132.128-.467.188-.534a.112.112,0,0,1,.2-.047.485.485,0,0,0,.181.156.3.3,0,0,0,.4.028.462.462,0,0,0,.213-.259,8.063,8.063,0,0,0,.015-1.384c0-.036-.123-.623-.123-.63s-.016-.3-.029-.37c0-.028-.009-.037.02-.033a.172.172,0,0,0,.056.037c.032.006.06-.048.041-.1l-.3-.545c-.024-.023-.054-.049-.092.007a.214.214,0,0,0-.073.162c.009.129.031.261.04.39l.118.663c.037.473.047.86.084,1.332-.005.2-.067.375-.126.4,0,0-.089.051-.148-.005a1.787,1.787,0,0,1-.217-.289.131.131,0,0,0-.21,0,2.906,2.906,0,0,0-.371.7c-.03.048-.117.09-.212,0A.983.983,0,0,1,220.962,121.4Zm-1.041-2.757a.409.409,0,0,1,.164.381c-.022.136-.081.282-.123.263s.031-.135-.013-.259c-.025-.081-.176-.228-.16-.271C219.758,118.67,219.853,118.63,219.921,118.646Z" transform="translate(-288.327 -114.922)" fill="#fff" fill-rule="evenodd"/>
    <path id="Path_11684" data-name="Path 11684" d="M156.924,122.272a3.33,3.33,0,0,0-.023-.593c-.007-.159-.179-1.369-.214-1.489-.042-.227.168-.03.145-.162-.073-.166-.253-.409-.31-.553-.034-.062-.02-.117-.1-.016a1.241,1.241,0,0,0-.068.565,11.631,11.631,0,0,1,.339,2.643c.086,0,.186-.2.228-.393Zm1.9-2.507c.1.05.16.332.149.412-.02.147-.074.306-.112.285s.008-.218-.012-.28c-.022-.087-.16-.246-.146-.293A.1.1,0,0,1,158.819,119.764Zm-7.517,2c.1.037.153.244.143.3-.019.108-.071.225-.107.209s.008-.16-.011-.206c-.008-.111-.142-.168-.14-.216-.025-.088.056-.1.116-.091Z" transform="translate(-223.931 -115.658)" fill="#fff" fill-rule="evenodd"/>
    <path id="Path_11685" data-name="Path 11685" d="M211.8,202.968c.125.008.187.106.07.147s-.226.07-.227.237c.043.232-.059.153-.119.121a.608.608,0,0,1-.3-.44.112.112,0,0,1,.125-.116,3.34,3.34,0,0,0,.45.051Z" transform="translate(-282.094 -196.553)" fill="#1b9d00" fill-rule="evenodd"/>
    <path id="Path_11686" data-name="Path 11686" d="M68.883,113.485c.143.043.151.253.141.314-.019.112-.07.233-.106.217s0-.166-.021-.213c-.021-.066-.142-.188-.128-.223C68.742,113.5,68.824,113.472,68.883,113.485Zm2.819.989a.256.256,0,0,0-.084.339.164.164,0,0,0,.178.057c.107.013.171-.2.171-.2s0-.06-.124.054c-.054.01-.06-.01-.074-.04a.265.265,0,0,1,.017-.168C71.8,114.461,71.763,114.437,71.7,114.474Zm.822-1.07a.4.4,0,0,0-.168.281c0,.074-.017.074.031.12s.07.046.141.009a.151.151,0,0,0,.068-.1c.017-.084-.089.04-.1-.054s.044-.122.108-.206C72.6,113.4,72.6,113.357,72.523,113.4Zm.662.118a1.731,1.731,0,0,0-.047.326c-.019.082.085.116.133.012a.994.994,0,0,0,.076-.355C73.324,113.38,73.241,113.384,73.185,113.522Zm4.173,2.123c.014-.014.588-.422.588-.422.058-.021.046.21.019.209a2.282,2.282,0,0,1-.607.422c-.028.021-.057-.158,0-.209Zm.523,0c.1.05.141.346.13.427,0,.156-.1.282-.136.261s0-.194-.016-.256c-.022-.087-.108-.251-.094-.3A.1.1,0,0,1,77.881,115.641Zm-3.413,1.274a.755.755,0,0,1,.166-.142.109.109,0,0,1,.109.019c.009.057-.036.11-.022.186.012.031.022.065.078.052a.414.414,0,0,1,.267-.081c.07,0,.073.122.028.123a2,2,0,0,0-.364.127.084.084,0,0,1-.106-.014.11.11,0,0,1-.01-.108c0-.06-.02-.094-.071-.087s-.071.034-.09-.009S74.444,116.934,74.468,116.916Zm4.016.159a.074.074,0,0,1,0,.112c-.04.037-.069.057-.109.094-.019.032-.031.082.027.1.107.03.355-.131.355-.134a.078.078,0,0,0,.023-.087c-.023-.027-.076-.011-.112-.015-.017,0-.072-.008-.046-.058a.336.336,0,0,0,.045-.087c.017-.037,0-.061-.058-.082a.475.475,0,0,0-.154,0c-.037.008-.049.024-.056.069C78.4,117.052,78.442,117.048,78.485,117.075Z" transform="translate(-144.098 -109.828)" fill="#fff" fill-rule="evenodd"/>
    <path id="Path_11687" data-name="Path 11687" d="M167.5,124.7c-.016.027-.069.026-.119,0s-.078-.074-.062-.1.069-.026.119,0S167.514,124.669,167.5,124.7Zm-2.619-1.576a.089.089,0,0,1-.087-.059c-.018-.04-.009-.078.021-.086a.089.089,0,0,1,.087.059C164.918,123.074,164.909,123.113,164.879,123.12Z" transform="translate(-237.105 -119.117)" fill="#259f00" fill-rule="evenodd"/>
    <path id="Path_11688" data-name="Path 11688" d="M331.945,351.534c.275.013.533,0,.808.017.05.042.014.146-.019.139l-.23-.007c0-.088-.227-.073-.22,0a2.16,2.16,0,0,1-.35-.009c-.036-.044-.031-.124.011-.143Z" transform="translate(-398.991 -340.509)" fill="#209000" fill-rule="evenodd"/>
  </g>
</svg>
