<svg xmlns="http://www.w3.org/2000/svg" width="16" height="16" viewBox="0 0 16 16">
  <g id="noun_Social_1394903" transform="translate(-2 -2)" fill="#0b151f">
    <g id="Group_4459" data-name="Group 4459" transform="translate(2 2)" fill="#0b151f">
      <g id="Group_4458" data-name="Group 4458" fill="#0b151f">
        <path id="Path_11619" data-name="Path 11619" d="M5.764,14.75a3.2,3.2,0,1,1-.906-6.332,6.414,6.414,0,0,1,4.4-3.831,3.2,3.2,0,1,1,6.132,1.754,6.411,6.411,0,0,1,1.592,6.119,3.2,3.2,0,1,1-4.523,4.523,6.41,6.41,0,0,1-6.7-2.232Zm1.5-.7a4.809,4.809,0,0,0,4.417,1.474,3.2,3.2,0,0,1,3.838-3.838,4.81,4.81,0,0,0-1.082-4.013,3.2,3.2,0,0,1-5.072-1.45A4.814,4.814,0,0,0,6.5,8.673a3.2,3.2,0,0,1,.768,5.373ZM12.4,6.8a1.6,1.6,0,1,0-1.6-1.6A1.6,1.6,0,0,0,12.4,6.8Zm2.4,9.6a1.6,1.6,0,1,0-1.6-1.6A1.6,1.6,0,0,0,14.8,16.4ZM5.2,13.2a1.6,1.6,0,1,0-1.6-1.6A1.6,1.6,0,0,0,5.2,13.2Z" transform="translate(-2 -2)" fill="#0b151f"/>
      </g>
    </g>
  </g>
</svg>
