<svg xmlns="http://www.w3.org/2000/svg" width="16.036" height="20.05" viewBox="0 0 16.036 20.05">
  <g id="noun_Terms_And_Conditions_3842643" data-name="noun_Terms And Conditions_3842643" transform="translate(-12.1 -2.5)">
    <g id="Group_4451" data-name="Group 4451" transform="translate(12.1 2.5)">
      <path id="Path_11613" data-name="Path 11613" d="M30.365,63.1H27.492a.591.591,0,0,0-.592.592.6.6,0,0,0,.592.592h2.873a.592.592,0,0,0,0-1.183Z" transform="translate(-23.773 -50.297)"/>
      <path id="Path_11614" data-name="Path 11614" d="M27.492,50.283h5.979a.592.592,0,1,0,0-1.183H27.492a.591.591,0,0,0-.592.592A.6.6,0,0,0,27.492,50.283Z" transform="translate(-23.773 -39.255)"/>
      <path id="Path_11615" data-name="Path 11615" d="M27.492,36.083h5.979a.592.592,0,0,0,0-1.183H27.492a.591.591,0,0,0-.592.592A.6.6,0,0,0,27.492,36.083Z" transform="translate(-23.773 -28.055)"/>
      <path id="Path_11616" data-name="Path 11616" d="M27.492,21.883h2.451a.592.592,0,1,0,0-1.183H27.492a.591.591,0,0,0-.592.592A.6.6,0,0,0,27.492,21.883Z" transform="translate(-23.773 -16.855)"/>
      <path id="Path_11617" data-name="Path 11617" d="M25.558,14.564V6.3a.628.628,0,0,0-.169-.423L22.178,2.669a.628.628,0,0,0-.423-.169H12.692a.591.591,0,0,0-.592.592v16.1a.591.591,0,0,0,.592.592h7.373a4.153,4.153,0,1,0,5.493-5.218ZM21.734,3.937l2.387,2.387H21.734ZM13.283,18.6V3.7H20.53V6.937a.591.591,0,0,0,.592.592h3.211v6.74a2.3,2.3,0,0,0-.38-.021,4.17,4.17,0,0,0-4.162,4.162v.19H13.283Zm10.69,2.768a2.958,2.958,0,1,1,2.958-2.958A2.967,2.967,0,0,1,23.974,21.367Z" transform="translate(-12.1 -2.5)"/>
      <path id="Path_11618" data-name="Path 11618" d="M61.906,71.649l-1.289,1.289-.423-.423a.6.6,0,0,0-.845.845l.866.866a.572.572,0,0,0,.423.169.628.628,0,0,0,.423-.169l1.732-1.732a.6.6,0,0,0,0-.845A.651.651,0,0,0,61.906,71.649Z" transform="translate(-49.229 -56.902)"/>
    </g>
  </g>
</svg>
