<svg xmlns="http://www.w3.org/2000/svg" xmlns:xlink="http://www.w3.org/1999/xlink" width="20.565" height="20.082" viewBox="0 0 20.565 20.082">
  <defs>
    <clipPath id="clip-path">
      <rect width="20.565" height="20.082" fill="none"/>
    </clipPath>
  </defs>
  <g id="noun_Edit_Profile_4174212" data-name="noun_Edit Profile_4174212" clip-path="url(#clip-path)">
    <g id="noun_Edit_Profile_4174212-2" data-name="noun_Edit Profile_4174212" transform="translate(-1.25 -1.75)">
      <path id="Path_11657" data-name="Path 11657" d="M13.4,2a4.9,4.9,0,1,0,4.9,4.9A4.9,4.9,0,0,0,13.4,2Zm0,1.4A3.5,3.5,0,1,1,9.9,6.9,3.5,3.5,0,0,1,13.4,3.4Z" transform="translate(-2.105)" fill="#242a37" stroke="#242a37" stroke-width="0.5" fill-rule="evenodd"/>
      <path id="Path_11658" data-name="Path 11658" d="M2.9,24.993H11.64a.7.7,0,1,1,0,1.4H2.2a.7.7,0,0,1-.7-.7v-1.4A6.294,6.294,0,0,1,7.794,18H11.64a.7.7,0,1,1,0,1.4H7.794a4.9,4.9,0,0,0-4.9,4.9Z" transform="translate(0 -4.811)" fill="#242a37" stroke="#242a37" stroke-width="0.5" fill-rule="evenodd"/>
      <path id="Path_11659" data-name="Path 11659" d="M26.755,19.33a.7.7,0,0,0,0-.989l-1.748-1.748a.7.7,0,0,0-.989,0l-4.1,4.1a.7.7,0,0,0-.2.464l-.08,1.827a.7.7,0,0,0,.729.729l1.827-.079a.7.7,0,0,0,.464-.2l4.1-4.1ZM21.1,21.491l-.034.793.793-.035,3.414-3.414-.758-.759L21.1,21.491Z" transform="translate(-5.452 -4.326)" fill="#242a37" stroke="#242a37" stroke-width="0.5" fill-rule="evenodd"/>
      <path id="Path_11660" data-name="Path 11660" d="M18.7,29.4h6.294a.7.7,0,1,0,0-1.4H18.7a.7.7,0,1,0,0,1.4Z" transform="translate(-4.961 -7.818)" fill="#242a37" stroke="#242a37" stroke-width="0.5" fill-rule="evenodd"/>
    </g>
  </g>
</svg>
