<svg xmlns="http://www.w3.org/2000/svg" width="13.994" height="14.292" viewBox="0 0 13.994 14.292"><path d="M19.295,18.274h-.285V6.621a.678.678,0,0,0-.636-.714h-.681v-.56A.327.327,0,0,0,17.39,5H8.479a.327.327,0,0,0-.3.347v.56H7.5a.678.678,0,0,0-.636.714V18.274H6.573a.522.522,0,1,0,0,1.018H19.294a.522.522,0,1,0,0-1.018ZM11.926,5.74a.1.1,0,0,1,.1-.107h.4a.1.1,0,0,1,.1.107v.545a.1.1,0,0,0,.1.107h.622a.1.1,0,0,0,.1-.107V5.74a.1.1,0,0,1,.1-.107h.393a.1.1,0,0,1,.1.107V7.67a.1.1,0,0,1-.1.107h-.393a.1.1,0,0,1-.1-.107V7.053a.1.1,0,0,0-.1-.108h-.622a.1.1,0,0,0-.1.108V7.67a.1.1,0,0,1-.1.107h-.4a.1.1,0,0,1-.1-.107V5.74Zm-1.091,9.434H8.673V13.647h2.162Zm0-2.545H8.673V11.1h2.162Zm0-2.544H8.673V8.559h2.162Zm3.18,6.758H11.853v-3.2h2.162v3.2Zm0-4.214H11.853V11.1h2.162v1.526Zm0-2.544H11.853V8.559h2.162v1.526Zm3.18,5.088H15.034V13.647H17.2Zm0-2.544H15.034V11.1H17.2Zm0-2.544H15.034V8.559H17.2Z" transform="translate(-5.937 -5)" fill="#f15922"/></svg>