<svg xmlns="http://www.w3.org/2000/svg" width="20.417" height="20.417" viewBox="0 0 20.417 20.417">
  <g>
    <path  d="M33.13,23.034a3.089,3.089,0,0,0-3.085,3.085v1.2h-.386a.857.857,0,0,0-.857.857v4.542a.857.857,0,0,0,.857.857H36.6a.857.857,0,0,0,.857-.857V28.176a.857.857,0,0,0-.857-.857h-.386v-1.2A3.089,3.089,0,0,0,33.13,23.034Zm-1.371,3.085a1.371,1.371,0,0,1,2.743,0v1.2H31.759Zm3.985,5.742H30.516V29.033h5.228v2.828Z" transform="translate(-22.921 -18.331)" fill="#242a37" stroke="#242a37" stroke-width="0.5"/>
    <path  d="M19.56,9.352a.857.857,0,0,0-.857.857A8.494,8.494,0,1,1,15.151,3.3H14.019a.857.857,0,1,0,0,1.714h3.3a.857.857,0,0,0,.857-.857V.857a.857.857,0,1,0-1.714,0V2.14a10.207,10.207,0,1,0,3.955,8.068A.857.857,0,0,0,19.56,9.352Z" fill="#242a37" stroke="#242a37" stroke-width="0.5"/>
  </g>
</svg>
