<svg xmlns="http://www.w3.org/2000/svg" width="19.773" height="19.773" viewBox="0 0 19.773 19.773"><path d="M13.282,0a1.688,1.688,0,0,0-1.193.494L10.067,2.516A.7.7,0,0,1,9.4,2.7l-8-2-.712.712a.7.7,0,0,0,.182,1.12L6.991,5.593l-2.8,2.8H1.131a.7.7,0,0,0-.625.386L0,9.787H0l2.8,1.4h0l1.4,2.8,1.012-.506a.7.7,0,0,0,.386-.625V9.787l2.8-2.8,3.062,6.123a.7.7,0,0,0,1.12.182l.712-.712-2-8a.7.7,0,0,1,.184-.664l2.022-2.022A1.688,1.688,0,0,0,13.981.7.7.7,0,0,0,13.282,0Z" transform="translate(9.886) rotate(45)" fill="#1c8ccc" fill-rule="evenodd"/></svg>