<svg xmlns="http://www.w3.org/2000/svg" width="20.503" height="20.503" viewBox="0 0 20.503 20.503">
  <g id="noun_sign_out_2010124" data-name="noun_sign out_2010124" transform="translate(-1.75 -1.75)">
    <path id="Path_13197" data-name="Path 13197" d="M5.572,2H18.431A3.441,3.441,0,0,1,22,5.572V7.715a.714.714,0,0,1-1.429,0V5.579a2.041,2.041,0,0,0-2.143-2.15H5.579a2.041,2.041,0,0,0-2.15,2.143V18.424a2.041,2.041,0,0,0,2.143,2.15H18.424a2.041,2.041,0,0,0,2.15-2.143V16.288a.714.714,0,1,1,1.429,0v2.143A3.441,3.441,0,0,1,18.431,22H5.572A3.441,3.441,0,0,1,2,18.431V5.572A3.441,3.441,0,0,1,5.572,2Zm8.966,5.122a.711.711,0,1,0-.786,1.186A18.888,18.888,0,0,1,17.3,11.287H7a.714.714,0,0,0,0,1.429H17.3a18.888,18.888,0,0,1-3.551,2.979A.714.714,0,0,0,14.145,17a.67.67,0,0,0,.393-.121c1.386-.922,4.608-3.243,4.608-4.879S15.923,8.044,14.538,7.122Z" fill="#242a37" stroke="#242a37" stroke-width="0.5"/>
  </g>
</svg>
