<svg xmlns="http://www.w3.org/2000/svg" width="20.057" height="20.057" viewBox="0 0 20.057 20.057">
  <path id="ic20-user-add" d="M8.268,14.535h7.521A6.268,6.268,0,0,1,22.057,20.8a1.254,1.254,0,0,1-2.5.146l-.015-.367a3.761,3.761,0,0,0-3.533-3.533l-.221-.006H8.268A3.761,3.761,0,0,0,4.507,20.8,1.254,1.254,0,0,1,2,20.8a6.268,6.268,0,0,1,6-6.262ZM12.028,2a1.254,1.254,0,0,1,0,2.507,3.761,3.761,0,1,0,2.486,6.582,1.254,1.254,0,0,1,1.658,1.88A6.268,6.268,0,1,1,12.028,2ZM18.3,2A1.254,1.254,0,0,1,19.55,3.254V4.507H20.8a1.254,1.254,0,0,1,0,2.507H19.55V8.268a1.254,1.254,0,0,1-2.507,0V7.014H15.789a1.254,1.254,0,0,1,0-2.507h1.254V3.254A1.254,1.254,0,0,1,18.3,2Z" transform="translate(-2 -2)" fill="#242a37" fill-rule="evenodd"/>
</svg>
