<svg xmlns="http://www.w3.org/2000/svg" width="16.441" height="11.757" viewBox="0 0 16.441 11.757"><g transform="translate(0.2 -7.085)"><path d="M16.041,13.8a1.694,1.694,0,0,0-1.476-1.668V8.889a.281.281,0,0,0-.192-.289,16.458,16.458,0,0,0-12.7,0,.308.308,0,0,0-.192.289v3.24A1.719,1.719,0,0,0,0,13.8v4.524a.3.3,0,0,0,.321.321H1.893a.3.3,0,0,0,.321-.321v-.8H13.827v.8a.3.3,0,0,0,.321.321H15.72a.3.3,0,0,0,.321-.321ZM.642,16.91v-.995H15.4v.995Zm1.476-7.8a15.745,15.745,0,0,1,11.838,0v3.016H12.769a2.8,2.8,0,0,0-2.759-2.47H6.064A2.8,2.8,0,0,0,3.3,12.129H2.117Zm9.978,3.016H3.946A2.168,2.168,0,0,1,6.064,10.3H9.978A2.168,2.168,0,0,1,12.095,12.129Zm-10.427.642H14.341A1.034,1.034,0,0,1,15.367,13.8v1.444H.642V13.8A1.034,1.034,0,0,1,1.668,12.771Zm-.1,5.261H.642v-.481h.93Zm13.827,0h-.93v-.481h.93Z" fill="#242a37" stroke="#242a37" stroke-width="0.4"/></g></svg>