<svg xmlns="http://www.w3.org/2000/svg" width="16.303" height="16.305" viewBox="0 0 16.303 16.305"><g transform="translate(0 0)"><path d="M106.441,98.861v4.977a7.152,7.152,0,0,1-.027.934c.008-.052.014-.1.021-.155a2.974,2.974,0,0,1-.2.727l.058-.14a2.937,2.937,0,0,1-.265.492c-.023.035-.048.07-.074.1s-.093.107.029-.037l-.041.048c-.058.072-.122.139-.186.205s-.128.122-.2.178a.428.428,0,0,1-.058.048c.008,0,.13-.1.046-.037-.037.027-.076.054-.114.079a2.938,2.938,0,0,1-.492.265l.139-.058a3.038,3.038,0,0,1-.727.2l.155-.021a9.194,9.194,0,0,1-1.223.027H95.83c-.347,0-.694,0-1.038,0a3.106,3.106,0,0,1-.4-.027l.155.021a2.974,2.974,0,0,1-.727-.2l.139.058a2.937,2.937,0,0,1-.492-.265c-.035-.023-.07-.048-.1-.074s-.107-.093.037.029l-.048-.041c-.072-.058-.139-.122-.205-.186s-.122-.128-.178-.2a.428.428,0,0,1-.048-.058c0,.008.1.13.037.046-.027-.037-.054-.076-.079-.114a2.937,2.937,0,0,1-.265-.492l.058.139a3.038,3.038,0,0,1-.2-.727c.008.052.014.1.021.155a9.192,9.192,0,0,1-.027-1.223V96.086c0-.347,0-.694,0-1.038a3.1,3.1,0,0,1,.027-.4c-.008.052-.014.1-.021.155a2.974,2.974,0,0,1,.2-.727l-.058.139a2.937,2.937,0,0,1,.265-.492c.023-.035.048-.07.074-.1s.093-.107-.029.037l.041-.048c.058-.072.122-.139.186-.205s.128-.122.2-.178a.428.428,0,0,1,.058-.048c-.008,0-.13.1-.047.037.037-.027.076-.054.114-.079a2.937,2.937,0,0,1,.492-.265l-.139.058a3.038,3.038,0,0,1,.727-.2l-.155.021a6,6,0,0,1,.814-.027h5.1a.581.581,0,0,0,0-1.162H96.337c-.511,0-1.023,0-1.534,0a3.527,3.527,0,0,0-3.111,1.887,3.566,3.566,0,0,0-.391,1.62v9.3a3.493,3.493,0,0,0,3.5,3.5c.356,0,.711,0,1.068,0h8.23a3.528,3.528,0,0,0,3.075-1.819,3.565,3.565,0,0,0,.426-1.687v-5.5a.588.588,0,0,0-.581-.581.6.6,0,0,0-.581.585Z" transform="translate(-91.3 -91.556)" fill="#fff"/></g><g transform="translate(5.982 0.011)"><path d="M409.222,94.583l-.678.678-1.62,1.62-1.965,1.965-1.691,1.691c-.273.273-.556.541-.823.823l-.012.012.411-.17-1.914.116-.273.017.581.581c.029-.649.056-1.3.085-1.949l.012-.275c-.056.138-.114.273-.17.411l.69-.69,1.651-1.651,1.978-1.978L407.17,94.1c.258-.258.513-.521.775-.775l0,0c.047-.045.087-.047-.033.019.041-.021.076-.046.118-.064l-.139.058a.7.7,0,0,1,.151-.041l-.155.021a.691.691,0,0,1,.155,0l-.155-.021a.6.6,0,0,1,.174.048l-.139-.058c.027.014.054.029.081.045.058.033-.1-.091-.054-.043a.207.207,0,0,0,.031.027l.012.012.076.076.312.312.723.723.1.1.019.019c.017.017.072.085.008,0s.008.025.021.054l-.058-.139a.776.776,0,0,1,.048.174c-.008-.052-.014-.1-.021-.155a.691.691,0,0,1,0,.155c.008-.052.014-.1.021-.155a.669.669,0,0,1-.041.151l.058-.139c-.016.033-.033.064-.05.095-.033.048-.019.031.043-.05a.107.107,0,0,1-.029.041.581.581,0,0,0,.821.821,1.185,1.185,0,0,0-.023-1.715l-.606-.606c-.192-.192-.384-.386-.577-.577a1.162,1.162,0,0,0-.63-.341,1.232,1.232,0,0,0-1.075.329c-.145.139-.287.287-.428.428l-1.058,1.058L404.223,95.4l-1.5,1.5-1.325,1.325-.862.862c-.058.058-.118.116-.176.176a.666.666,0,0,0-.182.432c-.006.074-.006.147-.01.221l-.081,1.848-.006.145a.584.584,0,0,0,.581.581l1.19-.074.758-.047a.939.939,0,0,0,.653-.186c.358-.339.7-.7,1.048-1.048l2.234-2.234,2.284-2.284c.4-.4.806-.794,1.2-1.2l.017-.017a.582.582,0,0,0-.821-.823Z" transform="translate(-400.076 -92.149)" fill="#fff"/></g></svg>