<svg xmlns="http://www.w3.org/2000/svg" width="14.304" height="14.924" viewBox="0 0 14.304 14.924">
  <g id="noun_gallery_69787" transform="translate(-2 -0.004)">
    <path id="Path_13261" data-name="Path 13261" d="M12.469,21.677H4.591A2.594,2.594,0,0,1,2,19.086v-8.5A2.594,2.594,0,0,1,4.591,8h7.878a2.594,2.594,0,0,1,2.591,2.591v8.5A2.594,2.594,0,0,1,12.469,21.677ZM4.591,8.618a1.971,1.971,0,0,0-1.97,1.969v8.5a1.971,1.971,0,0,0,1.97,1.969h7.878a1.971,1.971,0,0,0,1.969-1.969v-8.5a1.971,1.971,0,0,0-1.969-1.969Z" transform="translate(0 -6.749)" fill="#fff"/>
    <path id="Path_13262" data-name="Path 13262" d="M24.382,13.4l-.209-.585a1.972,1.972,0,0,0,1.312-1.855V2.595A1.971,1.971,0,0,0,23.516.625h-7.6A1.966,1.966,0,0,0,14.161,1.7l-.553-.284A2.586,2.586,0,0,1,15.914,0h7.6a2.594,2.594,0,0,1,2.591,2.591v8.362A2.6,2.6,0,0,1,24.382,13.4Z" transform="translate(-9.803)" fill="#fff"/>
    <path id="Path_13263" data-name="Path 13263" d="M6,75.992H17.816v.622H6Z" transform="translate(-3.378 -64.174)" fill="#fff"/>
    <path id="Path_13264" data-name="Path 13264" d="M19.531,24.966H9.649a.31.31,0,0,1-.252-.491l3.04-4.259a.311.311,0,0,1,.381-.1l1.295.582L16.244,17.9a.311.311,0,0,1,.529.06l3.04,6.565a.31.31,0,0,1-.019.3A.317.317,0,0,1,19.531,24.966Zm-9.278-.622h8.79l-2.619-5.655-1.968,2.578a.311.311,0,0,1-.375.095l-1.286-.579-2.542,3.561Z" transform="translate(-6.197 -15.014)" fill="#fff"/>
    <path id="Path_13265" data-name="Path 13265" d="M15.291,19.243a1.072,1.072,0,1,1,1.072-1.071A1.072,1.072,0,0,1,15.291,19.243Zm0-1.521a.45.45,0,1,0,.45.45A.449.449,0,0,0,15.291,17.723Z" transform="translate(-10.32 -14.438)" fill="#fff"/>
  </g>
</svg>
