<svg xmlns="http://www.w3.org/2000/svg" width="14.09" height="10.426" viewBox="0 0 14.09 10.426"><path d="M33.849,33.73a.086.086,0,0,0,.023-.07.178.178,0,0,0,.047-.094c0-.023.023-.047.023-.094,0-.023.023-.07.023-.094,0-.047.023-.094.023-.141v-.094A.3.3,0,0,0,33.966,33c0-.047-.023-.07-.023-.094s-.023-.047-.023-.07c-.023-.047-.047-.07-.07-.117,0-.023-.023-.023-.023-.047-.047-.047-.07-.094-.117-.141l-4.25-4.25a.946.946,0,1,0-1.339,1.339l2.654,2.654H20.839a.939.939,0,1,0,0,1.879h9.933l-2.654,2.654a.938.938,0,1,0,1.315,1.339l4.274-4.274.141-.141Z" transform="translate(-19.9 -28)" fill="#fff"/></svg>