<svg xmlns="http://www.w3.org/2000/svg" width="17.491" height="10.256" viewBox="0 0 17.491 10.256"><g transform="translate(8.744 -10.437) rotate(45)"><path d="M24.487,28.667a.223.223,0,0,1-.158-.381l3.956-3.956a.223.223,0,1,1,.316.316L24.645,28.6A.223.223,0,0,1,24.487,28.667Z" transform="translate(-14.965 -14.964)" fill="#26698e" stroke="#26698e" stroke-width="0.3"/><path d="M20.244,26.62a.223.223,0,0,1-.158-.381l3.325-3.325a.223.223,0,0,1,.316.316L20.4,26.555A.223.223,0,0,1,20.244,26.62Z" transform="translate(-11.669 -13.865)" fill="#26698e" stroke="#26698e" stroke-width="0.3"/><path d="M53.516,11.2a.223.223,0,0,1-.158-.381l.632-.632a.223.223,0,1,1,.316.316l-.632.632A.222.222,0,0,1,53.516,11.2Z" transform="translate(-37.511 -3.979)" fill="#26698e" stroke="#26698e" stroke-width="0.3"/><path d="M49.273,6.957a.223.223,0,0,1-.158-.381l.632-.632a.223.223,0,0,1,.316.316l-.632.632A.223.223,0,0,1,49.273,6.957Z" transform="translate(-34.215 -0.685)" fill="#26698e" stroke="#26698e" stroke-width="0.3"/><path d="M28.879,6.993a.223.223,0,0,1-.158-.065A1.117,1.117,0,0,1,30.3,5.348a.223.223,0,1,1-.316.316.67.67,0,0,0-.948.948.223.223,0,0,1-.158.381Z" transform="translate(-18.177 -0.024)" fill="#26698e" stroke="#26698e" stroke-width="0.3"/><path d="M40.031,11.224a.223.223,0,0,1-.158-.065L35.266,6.552a.223.223,0,1,1,.316-.316l4.607,4.607a.223.223,0,0,1-.158.381Z" transform="translate(-23.459 -0.912)" fill="#26698e" stroke="#26698e" stroke-width="0.3"/><path d="M51.026,28.764a1.114,1.114,0,0,1-.79-.321.223.223,0,1,1,.316-.316.67.67,0,0,0,.948-.948.223.223,0,0,1,.316-.316,1.132,1.132,0,0,1,0,1.579A1.113,1.113,0,0,1,51.026,28.764Z" transform="translate(-35.086 -16.933)" fill="#26698e" stroke="#26698e" stroke-width="0.3"/><path d="M51.026,17.45a1.114,1.114,0,0,1-.79-.321.223.223,0,1,1,.316-.316.67.67,0,1,0,.948-.948.223.223,0,0,1,.316-.316,1.131,1.131,0,0,1,0,1.579A1.113,1.113,0,0,1,51.026,17.45Z" transform="translate(-35.086 -8.146)" fill="#26698e" stroke="#26698e" stroke-width="0.3"/><path d="M48.818,8.7a.223.223,0,0,1-.158-.065l-2.08-2.08a.223.223,0,0,1,.316-.316l2.08,2.08a.223.223,0,0,1-.158.381Z" transform="translate(-32.246 -0.912)" fill="#26698e" stroke="#26698e" stroke-width="0.3"/><path d="M40.193,6.992a.223.223,0,0,1-.158-.065,1.117,1.117,0,1,1,1.579-1.579.223.223,0,0,1-.316.316.67.67,0,0,0-.948.948.223.223,0,0,1-.158.381Z" transform="translate(-26.964 -0.024)" fill="#26698e" stroke="#26698e" stroke-width="0.3"/><path d="M34.374,16.881a.223.223,0,0,1-.158-.065l-4.607-4.607a.223.223,0,0,1,.316-.316L34.532,16.5a.224.224,0,0,1-.158.381Z" transform="translate(-19.066 -5.306)" fill="#26698e" stroke="#26698e" stroke-width="0.3"/><path d="M10.344,54.371a.223.223,0,0,1-.158-.381l.632-.632a.223.223,0,0,1,.316.316l-.632.632A.223.223,0,0,1,10.344,54.371Z" transform="translate(-3.98 -37.51)" fill="#26698e" stroke="#26698e" stroke-width="0.3"/><path d="M6.1,50.128a.223.223,0,0,1-.158-.381l.632-.632a.223.223,0,1,1,.316.316l-.632.632A.222.222,0,0,1,6.1,50.128Z" transform="translate(-0.686 -34.215)" fill="#26698e" stroke="#26698e" stroke-width="0.3"/><path d="M5.506,30.366a.223.223,0,0,1-.158-.065,1.117,1.117,0,0,1,1.579-1.579.223.223,0,1,1-.316.316.67.67,0,0,0-.948.948.223.223,0,0,1-.158.381Z" transform="translate(-0.024 -18.177)" fill="#26698e" stroke="#26698e" stroke-width="0.3"/><path d="M11,40.254a.223.223,0,0,1-.158-.065L6.236,35.582a.223.223,0,1,1,.316-.316l4.607,4.607a.223.223,0,0,1-.158.381Z" transform="translate(-0.912 -23.459)" fill="#26698e" stroke="#26698e" stroke-width="0.3"/><path d="M27.653,52.136a1.114,1.114,0,0,1-.79-.321.223.223,0,0,1,.316-.316.67.67,0,0,0,.948-.948.223.223,0,0,1,.316-.316,1.132,1.132,0,0,1,0,1.579A1.113,1.113,0,0,1,27.653,52.136Z" transform="translate(-16.933 -35.086)" fill="#26698e" stroke="#26698e" stroke-width="0.3"/><path d="M16.34,52.137a1.113,1.113,0,0,1-.789-.321.223.223,0,1,1,.316-.316.67.67,0,0,0,.948-.948.223.223,0,0,1,.316-.316,1.132,1.132,0,0,1,0,1.579A1.114,1.114,0,0,1,16.34,52.137Z" transform="translate(-8.146 -35.086)" fill="#26698e" stroke="#26698e" stroke-width="0.3"/><path d="M8.474,49.041a.223.223,0,0,1-.158-.065L6.236,46.9a.223.223,0,1,1,.316-.316l2.08,2.08a.223.223,0,0,1-.158.381Z" transform="translate(-0.912 -32.245)" fill="#26698e" stroke="#26698e" stroke-width="0.3"/><path d="M5.505,41.679a.223.223,0,0,1-.158-.065,1.117,1.117,0,0,1,1.579-1.579.223.223,0,1,1-.316.316.67.67,0,0,0-.948.948.223.223,0,0,1-.158.381Z" transform="translate(-0.024 -26.963)" fill="#26698e" stroke="#26698e" stroke-width="0.3"/><path d="M16.659,34.6a.223.223,0,0,1-.158-.065l-4.607-4.607a.223.223,0,0,1,.316-.316l4.607,4.607a.224.224,0,0,1-.158.381Z" transform="translate(-5.307 -19.064)" fill="#26698e" stroke="#26698e" stroke-width="0.3"/><path d="M5.916,53.47a.84.84,0,0,1-.216-.029.969.969,0,0,1-.675-.675.836.836,0,0,1,.234-.822.223.223,0,0,1,.316.316.388.388,0,0,0-.118.391.53.53,0,0,0,.359.359.388.388,0,0,0,.391-.118.223.223,0,0,1,.316.316A.853.853,0,0,1,5.916,53.47Z" transform="translate(0 -36.412)" fill="#26698e" stroke="#26698e" stroke-width="0.3"/><path d="M53.05,6.587a.223.223,0,0,1-.158-.381.388.388,0,0,0,.118-.391.53.53,0,0,0-.359-.359.389.389,0,0,0-.391.118.223.223,0,0,1-.316-.316.837.837,0,0,1,.822-.234.969.969,0,0,1,.675.675.836.836,0,0,1-.234.822A.223.223,0,0,1,53.05,6.587Z" transform="translate(-36.412)" fill="#26698e" stroke="#26698e" stroke-width="0.3"/></g></svg>