<svg xmlns="http://www.w3.org/2000/svg" width="16.045" height="14.963" viewBox="0 0 16.045 14.963">
  <g id="noun_price_low_to_high_1861897_1_" data-name="noun_price low to high_1861897 (1)" transform="translate(-4 -5)">
    <path id="Path_13245" data-name="Path 13245" d="M10.947,9.275a.533.533,0,0,1-.378-.157L8.275,6.824v12.6a.534.534,0,0,1-1.069,0V6.824L4.912,9.119a.534.534,0,1,1-.756-.756L7.363,5.157a.534.534,0,0,1,.756,0l3.206,3.206a.534.534,0,0,1-.378.912Zm8.238,3.31a3.475,3.475,0,0,0-1.963-.783l-1.2-.177a2.352,2.352,0,0,1-1.182-.487,1.252,1.252,0,0,1-.4-.975c0-.93.679-1.638,1.918-1.638a3.088,3.088,0,0,1,2.289.812l0,0a.711.711,0,1,0,.986-1.024,4.255,4.255,0,0,0-2.817-1.144V5.534a.534.534,0,1,0-1.069,0V7.186A2.979,2.979,0,0,0,12.9,10.223a2.613,2.613,0,0,0,.768,2.007,3.6,3.6,0,0,0,1.993.841l1.239.177a1.822,1.822,0,0,1,1.152.443,1.411,1.411,0,0,1,.414,1.093c0,1.018-.8,1.609-2.17,1.609a3.466,3.466,0,0,1-2.686-1l0,0a.736.736,0,0,0-.555-.258.747.747,0,0,0-.747.747.738.738,0,0,0,.249.548l-.007.007a4.545,4.545,0,0,0,3.215,1.372v1.619h0a.534.534,0,0,0,1.068,0h0V17.788c1.9-.184,3.215-1.285,3.215-3.047a2.749,2.749,0,0,0-.856-2.155Z" fill="#aaa"/>
  </g>
</svg>
