<svg id="noun_Hotel_275507" xmlns="http://www.w3.org/2000/svg" width="14.053" height="14.352" viewBox="0 0 14.053 14.352">
  <g id="Group_1347" data-name="Group 1347">
    <path id="Path_8001" data-name="Path 8001" d="M19.351,18.33h-.287V6.628a.681.681,0,0,0-.639-.717h-.684V5.349a.328.328,0,0,0-.3-.349H8.49a.328.328,0,0,0-.3.349v.562H7.5a.681.681,0,0,0-.639.717v11.7H6.576a.524.524,0,1,0,0,1.022H19.351a.524.524,0,1,0,0-1.022Zm-7.4-12.587a.1.1,0,0,1,.1-.108h.4a.1.1,0,0,1,.1.108V6.29a.1.1,0,0,0,.1.107h.624a.1.1,0,0,0,.1-.107V5.743a.1.1,0,0,1,.1-.108h.395a.1.1,0,0,1,.1.108V7.681a.1.1,0,0,1-.1.108h-.395a.105.105,0,0,1-.1-.108v-.62a.1.1,0,0,0-.1-.108h-.624a.1.1,0,0,0-.1.108v.62a.1.1,0,0,1-.1.108h-.4a.1.1,0,0,1-.1-.108V5.743Zm-1.1,9.474H8.684V13.684h2.172Zm0-2.556H8.684V11.129h2.172Zm0-2.555H8.684V8.574h2.172Zm3.194,6.787H11.878v-3.21h2.171v3.21Zm0-4.232H11.878V11.129h2.171v1.533Zm0-2.555H11.878V8.574h2.171v1.533Zm3.194,5.11H15.073V13.684h2.171Zm0-2.555H15.073V11.129h2.171Zm0-2.555H15.073V8.574h2.171Z" transform="translate(-5.937 -5)" fill="#6c6c6c"/>
  </g>
</svg>
