<svg xmlns="http://www.w3.org/2000/svg" width="20" height="16.198" viewBox="0 0 20 16.198"><g transform="translate(-25.8 -30.4)"><g transform="translate(25.8 30.4)"><path d="M28.056,46h-.868a1.389,1.389,0,1,0,0,2.777h.868a1.389,1.389,0,0,0,0-2.777Z" transform="translate(-25.8 -39.289)" fill="#f15922"/><path d="M50.092,46h-9.3a1.389,1.389,0,1,0,0,2.777h9.3a1.389,1.389,0,0,0,0-2.777Z" transform="translate(-31.48 -39.289)" fill="#f15922"/><path d="M28.056,30.4h-.868a1.389,1.389,0,0,0,0,2.777h.868a1.389,1.389,0,0,0,0-2.777Z" transform="translate(-25.8 -30.4)" fill="#f15922"/><path d="M50.092,30.4h-9.3a1.389,1.389,0,0,0,0,2.777h9.3a1.389,1.389,0,0,0,0-2.777Z" transform="translate(-31.48 -30.4)" fill="#f15922"/><path d="M28.056,61.6h-.868a1.389,1.389,0,1,0,0,2.777h.868a1.389,1.389,0,1,0,0-2.777Z" transform="translate(-25.8 -48.179)" fill="#f15922"/><path d="M50.092,61.6h-9.3a1.389,1.389,0,0,0,0,2.777h9.3a1.389,1.389,0,1,0,0-2.777Z" transform="translate(-31.48 -48.179)" fill="#f15922"/></g></g></svg>