<svg xmlns="http://www.w3.org/2000/svg" width="16.028" height="14.947" viewBox="0 0 16.028 14.947">
  <path id="Path_13246" data-name="Path 13246" d="M11.317,15.833a.534.534,0,0,1,0,.755l-3.2,3.2a.534.534,0,0,1-.755,0l-3.2-3.2a.534.534,0,1,1,.755-.755L7.2,18.125V5.534a.534.534,0,0,1,1.068,0V18.125l2.292-2.292a.534.534,0,0,1,.755,0Zm7.852-3.256a3.471,3.471,0,0,0-1.961-.782l-1.195-.177a2.349,2.349,0,0,1-1.18-.486,1.251,1.251,0,0,1-.4-.974c0-.929.678-1.637,1.916-1.637a3.084,3.084,0,0,1,2.286.811l0,0a.711.711,0,1,0,.985-1.023,4.251,4.251,0,0,0-2.814-1.142V5.534a.534.534,0,0,0-1.068,0v1.65a2.976,2.976,0,0,0-2.858,3.034,2.611,2.611,0,0,0,.767,2.005,3.592,3.592,0,0,0,1.991.841l1.238.177a1.82,1.82,0,0,1,1.15.442,1.409,1.409,0,0,1,.413,1.092c0,1.017-.8,1.607-2.167,1.607a3.463,3.463,0,0,1-2.684-1l0,0a.735.735,0,0,0-.554-.258.746.746,0,0,0-.746.746.737.737,0,0,0,.248.548l-.007.007A4.54,4.54,0,0,0,15.744,17.8v1.617h0a.534.534,0,0,0,1.067,0h0V17.774c1.9-.183,3.212-1.284,3.212-3.044a2.746,2.746,0,0,0-.855-2.153Z" transform="translate(-4 -5)" fill="#aaa"/>
</svg>
