<svg xmlns="http://www.w3.org/2000/svg" width="14.251" height="8.04" viewBox="0 0 14.251 8.04"><g transform="translate(-2.524 -23.2)"><g transform="translate(2.524 23.2)"><path d="M57.953,41.358a4.232,4.232,0,0,0-2.385-1.875.47.47,0,1,0-.27.9,3.3,3.3,0,0,1,1.86,1.47.458.458,0,0,0,.405.225.475.475,0,0,0,.24-.06A.5.5,0,0,0,57.953,41.358Z" transform="translate(-47.096 -37.023)" fill="#26698e"/><path d="M16.441,29.41h-.78a6.033,6.033,0,0,0-5.145-5.505.908.908,0,0,0-1.77,0A6.033,6.033,0,0,0,3.63,29.41H2.85a.323.323,0,0,0-.3.45l.5,1.185a.313.313,0,0,0,.3.2h12.6a.328.328,0,0,0,.3-.2l.51-1.185A.337.337,0,0,0,16.441,29.41Zm-6.8-4.65a5.118,5.118,0,0,1,5.085,4.65H4.56A5.13,5.13,0,0,1,9.646,24.76Z" transform="translate(-2.524 -23.2)" fill="#26698e"/></g></g></svg>