<svg xmlns="http://www.w3.org/2000/svg" width="16.077" height="11.288" viewBox="0 0 16.077 11.288"><g transform="translate(-2.5 -16.7)"><g transform="translate(2.5 16.7)"><path d="M17.782,16.7H3.3a.794.794,0,0,0-.8.8.78.78,0,0,0,.8.778H17.782a.794.794,0,0,0,.8-.8A.78.78,0,0,0,17.782,16.7Z" transform="translate(-2.5 -16.7)" fill="#f15922"/><path d="M26.051,45.3H15.8a.8.8,0,1,0,0,1.591H26.051a.8.8,0,0,0,0-1.591Z" transform="translate(-12.885 -40.46)" fill="#f15922"/><path d="M34.32,74H28.3a.8.8,0,1,0,0,1.591H34.32a.8.8,0,0,0,0-1.591Z" transform="translate(-23.269 -64.303)" fill="#f15922"/></g></g></svg>