<svg xmlns="http://www.w3.org/2000/svg" width="12.058" height="16.225" viewBox="0 0 12.058 16.225">
  <g id="noun_Open_Door_3724150" data-name="noun_Open Door_3724150" transform="translate(12.058 16.225) rotate(180)">
    <path id="Path_13098" data-name="Path 13098" d="M12,.145a.318.318,0,0,0-.077-.079c-.007,0-.01-.013-.017-.017s-.011,0-.016,0a.315.315,0,0,0-.117-.037A.311.311,0,0,0,11.738,0H.325A.325.325,0,0,0,0,.324v5.9H.649V.649H10.4L5.883,2.985a.319.319,0,0,0-.178.286v9.683a.319.319,0,0,0,.178.286L10.4,15.576H.649V5.373H0V15.9a.325.325,0,0,0,.325.324H11.734a.315.315,0,0,0,.109-.022l.034-.015c.008,0,.017-.006.025-.011s.01-.012.017-.017A.318.318,0,0,0,12,16.08a.3.3,0,0,0,.024-.036.316.316,0,0,0,.037-.144V.324a.316.316,0,0,0-.037-.143A.3.3,0,0,0,12,.145ZM7.642,9.031a.324.324,0,0,1-.649,0V7.194a.324.324,0,0,1,.649,0Z" transform="translate(0)" fill="#373c44"/>
  </g>
</svg>
