<svg xmlns="http://www.w3.org/2000/svg" width="14.013" height="13.36" viewBox="0 0 14.013 13.36">
  <g id="noun_Star_4240626" transform="translate(-24 -25)">
    <g id="Group_10110" data-name="Group 10110" transform="translate(24 25)">
      <path id="Path_13199" data-name="Path 13199" d="M34.975,38.321l-3.968-2.086-3.968,2.086a.334.334,0,0,1-.485-.352l.758-4.418L24.1,30.421a.334.334,0,0,1,.185-.57l4.437-.645,1.984-4.02a.334.334,0,0,1,.6,0l1.984,4.02,4.437.645a.334.334,0,0,1,.185.57L34.7,33.55l.758,4.418a.334.334,0,0,1-.484.352" transform="translate(-24 -25)" fill="#f15922" fill-rule="evenodd"/>
    </g>
  </g>
</svg>
