<svg xmlns="http://www.w3.org/2000/svg" width="10" height="12.497" viewBox="0 0 10 12.497">
  <g id="noun_Map_1375502" transform="translate(-20 -11.3)">
    <g id="Group_10112" data-name="Group 10112" transform="translate(20 11.3)">
      <path id="Path_13200" data-name="Path 13200" d="M25,11.3a4.878,4.878,0,0,0-5,4.716c0,2.028,3,5.879,4.283,7.451A.929.929,0,0,0,25,23.8a.9.9,0,0,0,.7-.33C27,21.895,30,18.044,30,16.016A4.878,4.878,0,0,0,25,11.3Zm0,6.461a1.953,1.953,0,1,1,2.067-1.949A2.01,2.01,0,0,1,25,17.761Z" transform="translate(-20 -11.3)" fill="#aaa"/>
    </g>
  </g>
</svg>
