<svg xmlns="http://www.w3.org/2000/svg" width="12.403" height="12.403" viewBox="0 0 12.403 12.403"><g transform="translate(-3 -3)"><g transform="translate(3 3)"><path d="M39.684,3.428V6.422a.642.642,0,1,1-1.283,0V5.19L35,8.594a.642.642,0,1,1-.907-.907l3.4-3.4H36.262a.642.642,0,1,1,0-1.283h2.994a.429.429,0,0,1,.428.428Z" transform="translate(-27.28 -3)" fill="#26698e"/><path d="M8.594,34.15a.64.64,0,0,1,0,.907l-3.4,3.4H6.422a.642.642,0,0,1,0,1.283H3.428A.429.429,0,0,1,3,39.317V36.323a.642.642,0,1,1,1.283,0v1.232l3.4-3.4A.642.642,0,0,1,8.594,34.15Z" transform="translate(-3 -27.341)" fill="#26698e"/></g></g></svg>