<svg xmlns="http://www.w3.org/2000/svg" width="16.231" height="16.231" viewBox="0 0 16.231 16.231">
  <g id="noun_tick_1611480" transform="translate(-12.2 -12.2)">
    <path id="Path_13003" data-name="Path 13003" d="M38.251,37.037,34.48,40.609l-1.566-1.654a.671.671,0,0,0-.97.926L33.973,42a.64.64,0,0,0,.463.2.617.617,0,0,0,.463-.176l4.256-4.036a.662.662,0,0,0,.022-.926.64.64,0,0,0-.926-.022Z" transform="translate(-15.245 -19.213)" fill="#13a869"/>
    <path id="Path_13004" data-name="Path 13004" d="M20.316,12.2a8.116,8.116,0,1,0,8.116,8.116A8.116,8.116,0,0,0,20.316,12.2Zm0,14.908a6.792,6.792,0,1,1,6.792-6.792A6.792,6.792,0,0,1,20.316,27.108Z" transform="translate(0 0)" fill="#13a869"/>
  </g>
</svg>
