<svg xmlns="http://www.w3.org/2000/svg" width="17.619" height="21.151" viewBox="0 0 17.619 21.151">
  <g id="noun_Star_3437041" transform="translate(-18.163 -10.9)">
    <path id="Path_13241" data-name="Path 13241" d="M29.342,21.169a.5.5,0,0,0,.386.18.489.489,0,0,0,.335-.129.528.528,0,0,0,.051-.746l-1.39-1.6a.529.529,0,1,0-.8.695Z" transform="translate(-6.771 -5.791)" fill="#aaa"/>
    <path id="Path_13242" data-name="Path 13242" d="M35.257,35.733a.533.533,0,0,0-.437-.36l-5.095-.746L27.46,30.02a.554.554,0,0,0-.952,0l-2.264,4.606-5.095.746a.57.57,0,0,0-.437.36.525.525,0,0,0,.129.54l3.68,3.577-.875,5.069a.537.537,0,0,0,.772.566L27,43.092l4.555,2.393a.423.423,0,0,0,.257.051.494.494,0,0,0,.309-.1.559.559,0,0,0,.206-.515l-.875-5.069,3.68-3.577A.568.568,0,0,0,35.257,35.733Z" transform="translate(0 -14)" fill="none" stroke="#aaa" stroke-width="1"/>
    <path id="Path_13243" data-name="Path 13243" d="M48.81,14.065h0a.507.507,0,0,0,.515-.54v-2.11a.516.516,0,0,0-.515-.515h0a.522.522,0,0,0-.515.54v2.11A.5.5,0,0,0,48.81,14.065Z" transform="translate(-21.993)" fill="#aaa"/>
    <path id="Path_13244" data-name="Path 13244" d="M64.425,21.212a.537.537,0,0,0,.412-.206L66.1,19.334a.533.533,0,1,0-.849-.643l-1.261,1.673a.534.534,0,0,0,.1.746A.566.566,0,0,0,64.425,21.212Z" transform="translate(-33.568 -5.629)" fill="#aaa"/>
  </g>
</svg>
