<svg xmlns="http://www.w3.org/2000/svg" width="16.199" height="20.1" viewBox="0 0 16.199 20.1">
  <g id="noun_thumbs_up_1351290" data-name="noun_thumbs up_1351290" transform="translate(-10.52 -1)">
    <path id="Path_13037" data-name="Path 13037" d="M71.08,23.523a.513.513,0,0,0,.513.513h1.149a.513.513,0,0,0,0-1.025H71.593A.513.513,0,0,0,71.08,23.523Z" transform="translate(-48.139 -17.496)" fill="#aaa"/>
    <path id="Path_13038" data-name="Path 13038" d="M32.66,23.523a.513.513,0,0,0,.513.513h1.149a.513.513,0,1,0,0-1.025H33.173A.513.513,0,0,0,32.66,23.523Z" transform="translate(-17.599 -17.496)" fill="#aaa"/>
    <path id="Path_13039" data-name="Path 13039" d="M55.7,2.661V1.513a.513.513,0,1,0-1.025,0V2.661a.513.513,0,1,0,1.025,0Z" transform="translate(-35.095 0)" fill="#aaa"/>
    <path id="Path_13040" data-name="Path 13040" d="M67.238,7.6l-.82.82a.513.513,0,0,0,.726.726l.82-.82a.513.513,0,0,0-.726-.726Z" transform="translate(-44.313 -5.125)" fill="#aaa"/>
    <path id="Path_13041" data-name="Path 13041" d="M40.4,9.253a.513.513,0,0,0,.363-.876l-.82-.82a.513.513,0,0,0-.726.726l.82.82A.511.511,0,0,0,40.4,9.253Z" transform="translate(-22.692 -5.093)" fill="#aaa"/>
    <path id="Path_13042" data-name="Path 13042" d="M11.545,22.744a1.025,1.025,0,0,0-1.025,1.025v8.975a1.025,1.025,0,0,0,1.025,1.025h2.97a1.025,1.025,0,0,0,1.025-.954l.636.381a3.9,3.9,0,0,0,2,.556h4.334a3.784,3.784,0,0,0,1.526-.3,2.237,2.237,0,0,0,1.5-2.414,2.256,2.256,0,0,0,.667-2.506,2.24,2.24,0,0,0,.513-1.479,2.149,2.149,0,0,0-.42-1.167,1.881,1.881,0,0,0-.47-2.149q-.064-.059-.133-.113a1.95,1.95,0,0,0-.788-.349h-.023a15.386,15.386,0,0,0-3.62-.308,4.856,4.856,0,0,1,.357-2.184,3.247,3.247,0,0,0-.1-2.787,2.316,2.316,0,0,0-1.655-1.054H19.8a1.085,1.085,0,0,0-1.056.767.518.518,0,0,0-.016.074l-.154,1.108a3.3,3.3,0,0,1-.287.96l-1.5,3.14a1.762,1.762,0,0,1-1.255,1.025v-.244a1.025,1.025,0,0,0-1.025-1.025Zm0,10V23.769h2.97v8.975Zm4.1-7.7A2.775,2.775,0,0,0,17.719,23.4L19.2,20.272a4.323,4.323,0,0,0,.375-1.259l.158-1.036a.055.055,0,0,1,.027-.014,1.3,1.3,0,0,1,.884.57,2.339,2.339,0,0,1,0,1.926,5.585,5.585,0,0,0-.369,2.812l.343.533.567.189h0a14.784,14.784,0,0,1,3.487.285h.021a.943.943,0,0,1,.379.16l.066.055a.923.923,0,0,1,.123,1.194.513.513,0,0,0,.09.658,1.216,1.216,0,0,1,.347.751,1.409,1.409,0,0,1-.461,1,.513.513,0,0,0-.068.615,1.284,1.284,0,0,1-.494,1.723.521.521,0,0,0-.18.582c.055.164.273,1-.853,1.5a2.767,2.767,0,0,1-1.128.213H18.172a2.871,2.871,0,0,1-1.475-.41l-1.157-.693V25.061Z" transform="translate(0 -12.67)" fill="#aaa"/>
    <circle id="Ellipse_553" data-name="Ellipse 553" cx="0.626" cy="0.626" r="0.626" transform="translate(12.405 17.853)" fill="#aaa"/>
  </g>
</svg>
