<svg xmlns="http://www.w3.org/2000/svg" width="11.97" height="11.97" viewBox="0 0 11.97 11.97">
  <path id="Path_13229" data-name="Path 13229" d="M21.5,10.5H11.474a.974.974,0,0,0-.974.974V21.5a.974.974,0,0,0,.974.974H21.5a.974.974,0,0,0,.974-.974V11.474A.974.974,0,0,0,21.5,10.5Zm-.729,5.348a.487.487,0,0,1-.095.142l-2.31,2.31a.415.415,0,0,1-.3.122.42.42,0,0,1-.3-.713l1.6-1.6H13.76a.752.752,0,0,0-.749.749v2.725a.418.418,0,1,1-.835,0V16.861a1.584,1.584,0,0,1,1.584-1.584h5.609l-1.6-1.6a.418.418,0,0,1,.59-.59l2.3,2.31a.423.423,0,0,1,.106.448Z" transform="translate(-10.5 -10.5)" fill="#26698e"/>
</svg>
