<svg xmlns="http://www.w3.org/2000/svg" width="60.7" height="18.673" viewBox="0 0 60.7 18.673"><g transform="translate(-140.8 -1038)"><g transform="translate(156.7 1031.943)"><g transform="translate(18.8 8.056)"><path d="M27.031,14.818a3.568,3.568,0,0,0,1.575-4.148,4.077,4.077,0,0,0-7.612,0,3.568,3.568,0,0,0,1.575,4.148A5.611,5.611,0,0,0,18.8,20v1.626a1.487,1.487,0,0,0,1.538,1.43h8.923a1.487,1.487,0,0,0,1.538-1.43V19.982A5.613,5.613,0,0,0,27.031,14.818Zm-5.058-3.073a2.835,2.835,0,0,1,5.654,0,2.835,2.835,0,0,1-5.654,0Z" transform="translate(-18.8 -8.056)" fill="#26698e"/></g></g><g transform="translate(118 1032.5)"><g transform="translate(22.8 5.5)"><path d="M29.306,47.2h-.974A5.534,5.534,0,0,0,22.8,52.732v3.913H34.838V52.732A5.548,5.548,0,0,0,29.306,47.2Z" transform="translate(-22.8 -37.972)" fill="#26698e"/><path d="M40.078,9.439a3.939,3.939,0,1,0-3.939,3.939A3.948,3.948,0,0,0,40.078,9.439Zm-6.55,0a2.611,2.611,0,1,1,2.611,2.611A2.616,2.616,0,0,1,33.528,9.439Z" transform="translate(-30.12 -5.5)" fill="#26698e"/></g></g><g transform="translate(170.7 1031.943)"><g transform="translate(18.8 8.056)"><path d="M27.031,14.818a3.568,3.568,0,0,0,1.575-4.148,4.077,4.077,0,0,0-7.612,0,3.568,3.568,0,0,0,1.575,4.148A5.611,5.611,0,0,0,18.8,20v1.626a1.487,1.487,0,0,0,1.538,1.43h8.923a1.487,1.487,0,0,0,1.538-1.43V19.982A5.613,5.613,0,0,0,27.031,14.818Zm-5.058-3.073a2.835,2.835,0,0,1,5.654,0,2.835,2.835,0,0,1-5.654,0Z" transform="translate(-18.8 -8.056)" fill="#26698e"/></g></g><g transform="translate(132 1032.5)"><g transform="translate(22.8 5.5)"><path d="M29.306,47.2h-.974A5.534,5.534,0,0,0,22.8,52.732v3.913H34.838V52.732A5.548,5.548,0,0,0,29.306,47.2Z" transform="translate(-22.8 -37.972)" fill="#26698e"/><path d="M40.078,9.439a3.939,3.939,0,1,0-3.939,3.939A3.948,3.948,0,0,0,40.078,9.439Zm-6.55,0a2.611,2.611,0,1,1,2.611,2.611A2.616,2.616,0,0,1,33.528,9.439Z" transform="translate(-30.12 -5.5)" fill="#26698e"/></g></g></g></svg>