<svg xmlns="http://www.w3.org/2000/svg" width="35.714" height="9.75" viewBox="0 0 35.714 9.75"><g transform="translate(3816 5456)"><g transform="translate(-3827.763 -5477.717)"><g transform="translate(8 21)"><path d="M15.526,974.079a1.624,1.624,0,0,0,0,3.226,1.624,1.624,0,0,0,0-3.226Zm0,5.018c-2.085,0-3.763,1.359-3.763,3.047v1.613H19.29v-1.613C19.29,980.455,17.611,979.1,15.526,979.1Z" transform="translate(-8 -973.362)" fill="#00367a"/></g></g><g transform="translate(-3805.091 -5475.717)"><g transform="translate(11.763 21.717)"><path d="M14.777,974.079a1.3,1.3,0,0,0,0,2.583,1.3,1.3,0,0,0,0-2.583Zm0,4.018a2.767,2.767,0,0,0-3.014,2.44v1.292h6.028v-1.292A2.767,2.767,0,0,0,14.777,978.1Z" transform="translate(-11.763 -974.079)" fill="#00367a"/></g></g><g transform="translate(-3819.251 -5477.717)"><g transform="translate(8 21)"><path d="M15.526,974.079a1.624,1.624,0,0,0,0,3.226,1.624,1.624,0,0,0,0-3.226Zm0,5.018c-2.085,0-3.763,1.359-3.763,3.047v1.613H19.29v-1.613C19.29,980.455,17.611,979.1,15.526,979.1Z" transform="translate(-8 -973.362)" fill="#00367a"/></g></g><g transform="translate(-3798.077 -5475.717)"><g transform="translate(11.763 21.717)"><path d="M14.777,974.079a1.3,1.3,0,0,0,0,2.583,1.3,1.3,0,0,0,0-2.583Zm0,4.018a2.767,2.767,0,0,0-3.014,2.44v1.292h6.028v-1.292A2.767,2.767,0,0,0,14.777,978.1Z" transform="translate(-11.763 -974.079)" fill="#00367a"/></g></g></g></svg>