<svg xmlns="http://www.w3.org/2000/svg" width="14.036" height="8.62" viewBox="0 0 14.036 8.62"><g transform="translate(-5.352 -20.464)"><g transform="translate(5.352 20.464)"><path d="M8.905,27.482a3.465,3.465,0,1,1,6.93,0H14.9a2.529,2.529,0,1,0-5.058,0Zm-1.724,0a5.189,5.189,0,1,1,10.377,0h-.965a4.224,4.224,0,1,0-8.448,0Zm-1.829,0a7.018,7.018,0,1,1,14.036,0H18.319a5.949,5.949,0,1,0-11.9,0Z" transform="translate(-5.352 -20.464)" fill="#26698e" fill-rule="evenodd"/><circle cx="1.739" cy="1.739" r="1.739" transform="translate(5.251 5.141)" fill="#26698e"/></g></g></svg>